<svg version="1.1" id="Layer_1" xmlns="http://www.w3.org/2000/svg" xmlns:xlink="http://www.w3.org/1999/xlink" x="0px" y="0px"
	 width="100%" viewBox="0 0 512 512" enable-background="new 0 0 512 512" xml:space="preserve">
<path fill="#FFFFFF" opacity="1.000000" stroke="none" 
	d="
M277.000000,513.000000 
	C184.689072,513.000000 92.878143,513.000000 1.033606,513.000000 
	C1.033606,342.397369 1.033606,171.794754 1.033606,1.096060 
	C171.560944,1.096060 342.121979,1.096060 512.841492,1.096060 
	C512.841492,171.666550 512.841492,342.333252 512.841492,513.000000 
	C434.461395,513.000000 355.980682,513.000000 277.000000,513.000000 
M205.689728,441.866272 
	C219.245651,449.537842 232.988739,456.902557 246.279083,465.009460 
	C252.998337,469.108124 258.950745,472.453308 265.994629,466.073364 
	C267.675873,464.550568 269.945648,463.670959 271.961700,462.525330 
	C296.454620,448.607208 320.981689,434.748962 345.438202,420.767181 
	C376.939270,402.758026 408.340515,384.573517 439.918457,366.700745 
	C443.243317,364.818909 444.075958,362.860962 444.070984,359.334930 
	C443.975189,291.169678 444.000031,223.004288 443.999725,154.838928 
	C443.999725,153.838959 444.265564,152.735199 443.929871,151.863800 
	C443.448639,150.614548 442.802124,149.058731 441.753174,148.453079 
	C420.802521,136.356613 399.796082,124.356590 378.775238,112.382065 
	C358.904022,101.062416 338.978455,89.838104 319.122559,78.491745 
	C299.415558,67.230484 279.802307,55.804089 260.020264,44.677128 
	C258.453979,43.796127 255.483902,43.960915 253.852966,44.870750 
	C238.806442,53.264584 223.942963,61.985439 208.964325,70.502312 
	C188.506866,82.134430 167.956879,93.604042 147.516739,105.266304 
	C122.763130,119.389626 98.115211,133.698563 73.322350,147.752167 
	C70.738647,149.216705 69.945450,150.740082 69.948158,153.549194 
	C70.014587,222.547821 70.016907,291.546539 69.941200,360.545135 
	C69.938042,363.418640 70.855614,364.881195 73.409210,366.288055 
	C86.036499,373.244751 98.516556,380.469086 111.037964,387.617493 
	C129.313171,398.050690 147.585587,408.488770 165.847275,418.945648 
	C178.930283,426.437134 191.993790,433.962677 205.689728,441.866272 
z"/>
<path fill="#AECBFA" opacity="1.000000" stroke="none" 
	d="
M205.377869,441.669647 
	C191.993790,433.962677 178.930283,426.437134 165.847275,418.945648 
	C147.585587,408.488770 129.313171,398.050690 111.037964,387.617493 
	C98.516556,380.469086 86.036499,373.244751 73.409210,366.288055 
	C70.855614,364.881195 69.938042,363.418640 69.941200,360.545135 
	C70.016907,291.546539 70.014587,222.547821 69.948158,153.549194 
	C69.945450,150.740082 70.738647,149.216705 73.322350,147.752167 
	C98.115211,133.698563 122.763130,119.389626 147.516739,105.266304 
	C167.956879,93.604042 188.506866,82.134430 208.964325,70.502312 
	C223.942963,61.985439 238.806442,53.264584 253.852966,44.870750 
	C255.483902,43.960915 258.453979,43.796127 260.020264,44.677128 
	C279.802307,55.804089 299.415558,67.230484 319.122559,78.491745 
	C338.978455,89.838104 358.904022,101.062416 378.775238,112.382065 
	C399.796082,124.356590 420.802521,136.356613 441.753174,148.453079 
	C442.802124,149.058731 443.448639,150.614548 443.929871,151.863800 
	C444.265564,152.735199 443.999725,153.838959 443.999725,154.838928 
	C444.000031,223.004288 443.975189,291.169678 444.070984,359.334930 
	C444.075958,362.860962 443.243317,364.818909 439.918457,366.700745 
	C408.340515,384.573517 376.939270,402.758026 345.438202,420.767181 
	C320.981689,434.748962 296.454620,448.607208 271.961700,462.525330 
	C269.945648,463.670959 267.675873,464.550568 265.994629,466.073364 
	C258.950745,472.453308 252.998337,469.108124 246.279083,465.009460 
	C232.988739,456.902557 219.245651,449.537842 205.377869,441.669647 
M391.646271,345.999329 
	C399.195251,343.348480 405.212860,339.609558 402.999573,329.081726 
	C402.999725,282.251465 402.762634,235.419022 403.196716,188.592804 
	C403.285400,179.027954 402.016876,172.833984 392.109009,168.003555 
	C373.234802,158.801697 355.401001,147.468597 337.117767,137.050980 
	C320.417694,127.535370 303.710876,118.031342 286.973602,108.581345 
	C280.237946,104.778336 273.413330,101.132851 266.010681,97.076767 
	C266.010681,115.469330 265.942749,133.087479 266.137939,150.702728 
	C266.153778,152.132233 267.650757,154.092209 268.999817,154.877472 
	C287.185028,165.462860 305.478241,175.862427 323.716736,186.356659 
	C329.795502,189.854324 335.794983,193.489883 342.376282,197.385315 
	C339.933350,198.983200 338.334442,200.139832 336.635437,201.123672 
	C310.972748,215.984497 285.321045,230.864883 259.559601,245.552826 
	C258.133209,246.366074 255.628632,245.963211 253.881180,245.371948 
	C251.563828,244.587875 249.480911,243.090118 247.326767,241.847855 
	C229.388306,231.503036 211.455200,221.148926 193.523636,210.792145 
	C186.098068,206.503357 178.680191,202.201263 171.141312,197.837189 
	C171.732635,197.103119 171.960297,196.593567 172.351761,196.367004 
	C196.154037,182.590393 219.940842,168.786346 243.829041,155.160034 
	C246.210526,153.801590 247.074005,152.446732 247.055298,149.775894 
	C246.943192,133.777710 247.010727,117.778297 246.976471,101.779381 
	C246.973953,100.599243 246.644775,99.419807 246.431641,98.001656 
	C233.153107,105.431084 220.410019,112.514977 207.710236,119.675674 
	C176.817505,137.094360 145.964813,154.584274 115.034088,171.935165 
	C111.844925,173.724136 110.922478,175.968460 110.929825,179.500504 
	C111.033470,229.330444 111.000885,279.160706 110.682419,329.747711 
	C110.776329,333.264008 109.490189,338.047699 111.284950,340.001953 
	C114.033234,342.994476 118.904808,344.036957 123.261559,346.498169 
	C143.709473,358.089813 164.148163,369.697754 184.607712,381.268829 
	C207.806763,394.389221 230.997604,407.525024 254.297211,420.464691 
	C255.778717,421.287445 258.517059,421.137085 260.077850,420.314545 
	C269.156891,415.529785 278.083313,410.452179 287.014923,405.391693 
	C306.023590,394.621643 325.013977,383.819275 343.992462,372.996155 
	C359.647980,364.068176 375.275604,355.091248 391.646271,345.999329 
z"/>
<path fill="#FFFFFF" opacity="1.000000" stroke="none" 
	d="
M111.001328,328.990875 
	C111.000885,279.160706 111.033470,229.330444 110.929825,179.500504 
	C110.922478,175.968460 111.844925,173.724136 115.034088,171.935165 
	C145.964813,154.584274 176.817505,137.094360 207.710236,119.675674 
	C220.410019,112.514977 233.153107,105.431084 246.431641,98.001656 
	C246.644775,99.419807 246.973953,100.599243 246.976471,101.779381 
	C247.010727,117.778297 246.943192,133.777710 247.055298,149.775894 
	C247.074005,152.446732 246.210526,153.801590 243.829041,155.160034 
	C219.940842,168.786346 196.154037,182.590393 172.351761,196.367004 
	C171.960297,196.593567 171.732635,197.103119 171.141312,197.837189 
	C178.680191,202.201263 186.098068,206.503357 193.523636,210.792145 
	C211.455200,221.148926 229.388306,231.503036 247.326767,241.847855 
	C249.480911,243.090118 251.563828,244.587875 253.881180,245.371948 
	C255.628632,245.963211 258.133209,246.366074 259.559601,245.552826 
	C285.321045,230.864883 310.972748,215.984497 336.635437,201.123672 
	C338.334442,200.139832 339.933350,198.983200 342.376282,197.385315 
	C335.794983,193.489883 329.795502,189.854324 323.716736,186.356659 
	C305.478241,175.862427 287.185028,165.462860 268.999817,154.877472 
	C267.650757,154.092209 266.153778,152.132233 266.137939,150.702728 
	C265.942749,133.087479 266.010681,115.469330 266.010681,97.076767 
	C273.413330,101.132851 280.237946,104.778336 286.973602,108.581345 
	C303.710876,118.031342 320.417694,127.535370 337.117767,137.050980 
	C355.401001,147.468597 373.234802,158.801697 392.109009,168.003555 
	C402.016876,172.833984 403.285400,179.027954 403.196716,188.592804 
	C402.762634,235.419022 402.999725,282.251465 402.665070,329.437622 
	C386.004150,320.435455 369.675018,311.082184 353.354401,301.714142 
	C350.932770,300.324127 349.880249,298.494446 349.901642,295.395813 
	C350.076294,270.065308 350.004791,244.733109 349.989471,219.401428 
	C349.988434,217.667236 349.836975,215.933121 349.727631,213.606583 
	C335.602509,221.949783 322.092194,229.882065 308.630066,237.895370 
	C296.119965,245.341980 283.761597,253.051285 271.110199,260.247223 
	C267.903381,262.071228 266.861328,263.842194 266.906769,267.433990 
	C267.117554,284.096893 267.000000,300.763977 267.000000,317.429565 
	C267.000000,332.051758 267.000000,346.673981 267.000000,362.091583 
	C273.190460,358.526184 278.863739,355.343903 284.454651,352.022919 
	C302.599701,341.244812 320.676453,330.350433 338.909180,319.723389 
	C340.465363,318.816406 343.423096,318.776855 344.985779,319.656281 
	C360.385803,328.322754 375.628387,337.269043 390.915588,346.136017 
	C375.275604,355.091248 359.647980,364.068176 343.992462,372.996155 
	C325.013977,383.819275 306.023590,394.621643 287.014923,405.391693 
	C278.083313,410.452179 269.156891,415.529785 260.077850,420.314545 
	C258.517059,421.137085 255.778717,421.287445 254.297211,420.464691 
	C230.997604,407.525024 207.806763,394.389221 184.607712,381.268829 
	C164.148163,369.697754 143.709473,358.089813 123.270813,345.919647 
	C137.373993,337.209534 151.474594,329.089478 165.556610,320.937347 
	C168.670288,319.134827 171.320435,317.131348 175.397980,319.635345 
	C191.636810,329.607422 208.083862,339.241028 224.474442,348.965149 
	C231.773254,353.295380 239.121002,357.543121 246.996674,362.150116 
	C246.996674,329.079926 247.018478,296.944336 246.906921,264.809204 
	C246.902985,263.672424 245.848724,262.087158 244.826187,261.472534 
	C222.294388,247.929245 199.704803,234.481918 177.107300,221.048203 
	C172.986847,218.598694 168.783630,216.288406 164.000000,213.561172 
	C164.000000,216.420959 164.000000,218.243347 164.000000,220.065735 
	C164.000000,244.718399 163.895477,269.371948 164.101974,294.022888 
	C164.136749,298.174530 162.628021,300.217529 159.107513,302.073730 
	C151.407150,306.133881 144.016586,310.776764 136.420715,315.041290 
	C127.993347,319.772675 119.478241,324.347748 111.001328,328.990875 
z"/>
<path fill="#669DF6" opacity="1.000000" stroke="none" 
	d="
M110.841873,329.369293 
	C119.478241,324.347748 127.993347,319.772675 136.420715,315.041290 
	C144.016586,310.776764 151.407150,306.133881 159.107513,302.073730 
	C162.628021,300.217529 164.136749,298.174530 164.101974,294.022888 
	C163.895477,269.371948 164.000000,244.718399 164.000000,220.065735 
	C164.000000,218.243347 164.000000,216.420959 164.000000,213.561172 
	C168.783630,216.288406 172.986847,218.598694 177.107300,221.048203 
	C199.704803,234.481918 222.294388,247.929245 244.826187,261.472534 
	C245.848724,262.087158 246.902985,263.672424 246.906921,264.809204 
	C247.018478,296.944336 246.996674,329.079926 246.996674,362.150116 
	C239.121002,357.543121 231.773254,353.295380 224.474442,348.965149 
	C208.083862,339.241028 191.636810,329.607422 175.397980,319.635345 
	C171.320435,317.131348 168.670288,319.134827 165.556610,320.937347 
	C151.474594,329.089478 137.373993,337.209534 123.077606,345.624146 
	C118.904808,344.036957 114.033234,342.994476 111.284950,340.001953 
	C109.490189,338.047699 110.776329,333.264008 110.841873,329.369293 
z"/>
<path fill="#4285F4" opacity="1.000000" stroke="none" 
	d="
M391.280945,346.067688 
	C375.628387,337.269043 360.385803,328.322754 344.985779,319.656281 
	C343.423096,318.776855 340.465363,318.816406 338.909180,319.723389 
	C320.676453,330.350433 302.599701,341.244812 284.454651,352.022919 
	C278.863739,355.343903 273.190460,358.526184 267.000000,362.091583 
	C267.000000,346.673981 267.000000,332.051758 267.000000,317.429565 
	C267.000000,300.763977 267.117554,284.096893 266.906769,267.433990 
	C266.861328,263.842194 267.903381,262.071228 271.110199,260.247223 
	C283.761597,253.051285 296.119965,245.341980 308.630066,237.895370 
	C322.092194,229.882065 335.602509,221.949783 349.727631,213.606583 
	C349.836975,215.933121 349.988434,217.667236 349.989471,219.401428 
	C350.004791,244.733109 350.076294,270.065308 349.901642,295.395813 
	C349.880249,298.494446 350.932770,300.324127 353.354401,301.714142 
	C369.675018,311.082184 386.004150,320.435455 402.664795,329.907654 
	C405.212860,339.609558 399.195251,343.348480 391.280945,346.067688 
z"/>
</svg>