<?xml version="1.0" encoding="UTF-8"?>
<svg version="1.1" xmlns="http://www.w3.org/2000/svg" width="393" height="346">
<path d="M0 0 C3.02246275 0.3487457 4.41700374 0.10609581 7.25 -0.625 C12.61304529 -0.08612134 17.45055859 1.22815095 22.54296875 2.88671875 C23.32296234 3.13556824 24.10295593 3.38441772 24.90658569 3.64080811 C27.41850341 4.4430967 29.92797593 5.25275896 32.4375 6.0625 C35.87679115 7.1640089 39.31725288 8.26183556 42.7578125 9.359375 C43.59335159 9.6264476 44.42889069 9.8935202 45.28974915 10.16868591 C51.44107746 12.13057504 57.61453399 14.00316369 63.8125 15.8125 C83.99866688 21.77169714 83.99866688 21.77169714 91.25 27.375 C91.93320312 27.85453125 92.61640625 28.3340625 93.3203125 28.828125 C104.41409439 36.87581763 113.60346652 49.16265343 116.00390625 62.921875 C118.65475726 89.3462311 106.64931808 113.20672523 96.8515625 137.0234375 C91.7481346 149.44165606 87.00522225 161.99825106 82.23413086 174.546875 C77.61189615 186.6966211 72.89266628 198.80481458 68.046875 210.8671875 C65.8327006 216.4026235 63.66078047 221.95471138 61.48364258 227.50479126 C51.41703345 253.16668839 51.41703345 253.16668839 47.546875 262.484375 C44.47839323 269.87239305 41.50429665 277.26821077 38.73706055 284.77514648 C35.89136773 292.43921004 32.82035434 300.01359048 29.7644043 307.59570312 C27.5220841 313.16478393 25.32831888 318.74255274 23.25 324.375 C16.94422662 324.06488 11.13812989 322.91883411 5.0625 321.25 C-3.42791482 318.92323352 -11.97041527 316.91461979 -20.5625 315 C-23.25527366 314.39872975 -25.94796772 313.7971037 -28.640625 313.1953125 C-29.31523773 313.04464325 -29.98985046 312.893974 -30.68490601 312.73873901 C-41.47172256 310.32450754 -52.22830906 307.77878664 -62.98974609 305.25439453 C-66.81092725 304.36075121 -70.63371451 303.47430274 -74.45703125 302.58984375 C-87.07636481 299.66703345 -99.66938396 296.6726484 -112.22753906 293.49707031 C-119.29520814 291.71774741 -126.38429731 290.068056 -133.49609375 288.47558594 C-144.4193461 286.01976382 -155.30810286 283.41784428 -166.19824219 280.81982422 C-173.89118592 278.98656924 -181.58622532 277.17225536 -189.3046875 275.44921875 C-212.16955918 270.33125596 -235.56446865 264.86445199 -250.75 245.375 C-260.60961285 229.70791725 -262.31173369 213.34721747 -258.75 195.375 C-256.96975648 187.99686385 -254.57783457 180.95862506 -251.875 173.875 C-249.18220777 166.67923338 -246.8535558 159.51911992 -245 152.0625 C-242.99844398 144.01588209 -240.81153906 137.04702877 -235.75 130.375 C-235.02648573 128.39485568 -234.34734611 126.39678685 -233.75 124.375 C-233.09 124.375 -232.43 124.375 -231.75 124.375 C-231.46769531 123.7975 -231.18539062 123.22 -230.89453125 122.625 C-228.01688938 116.96792929 -225.19606077 111.90757996 -219.75 108.375 C-219.09 108.375 -218.43 108.375 -217.75 108.375 C-217.66492188 107.7046875 -217.57984375 107.034375 -217.4921875 106.34375 C-214.45292248 94.18668993 -205.1801502 83.30355861 -196.75 74.375 C-196.1420459 73.72998535 -195.5340918 73.0849707 -194.90771484 72.42041016 C-186.45652167 63.54360217 -177.83186106 55.38882523 -167.75 48.375 C-167.07211426 47.9011084 -166.39422852 47.4272168 -165.69580078 46.93896484 C-155.38948283 39.78722049 -144.87284818 33.17761427 -133.75 27.375 C-132.89180664 26.92157227 -132.03361328 26.46814453 -131.14941406 26.00097656 C-90.80905757 4.92261228 -45.57503635 -6.27482385 0 0 Z " fill="#8D0600" transform="translate(270.75,10.625)"/>
<path d="M0 0 C3.02246275 0.3487457 4.41700374 0.10609581 7.25 -0.625 C11.267278 -0.31597862 14.74787732 0.47999 18.484375 1.921875 C19.19303711 2.19354492 19.90169922 2.46521484 20.63183594 2.74511719 C21.16583008 2.95297852 21.69982422 3.16083984 22.25 3.375 C22.15460938 4.66535156 22.05921875 5.95570312 21.9609375 7.28515625 C21.8483207 9.00256247 21.7363772 10.72001294 21.625 12.4375 C21.56054688 13.28505859 21.49609375 14.13261719 21.4296875 15.00585938 C20.8361961 24.61300146 23.76283562 30.74009823 28.9375 38.625 C29.47334717 39.45966797 30.00919434 40.29433594 30.5612793 41.15429688 C32.8883134 44.77420571 35.24335626 48.37414869 37.6328125 51.953125 C38.26960938 52.91734375 38.90640625 53.8815625 39.5625 54.875 C40.11550781 55.6896875 40.66851562 56.504375 41.23828125 57.34375 C42.25 59.375 42.25 59.375 41.25 62.375 C38.47882696 62.23419445 35.70817359 62.08756882 32.9375 61.9375 C32.15181641 61.89818359 31.36613281 61.85886719 30.55664062 61.81835938 C29.4206543 61.75551758 29.4206543 61.75551758 28.26171875 61.69140625 C27.56522217 61.65474854 26.86872559 61.61809082 26.15112305 61.58032227 C24.25 61.375 24.25 61.375 21.25 60.375 C19.42158659 60.12717288 17.58701959 59.92283786 15.75 59.75 C14.7909375 59.65460938 13.831875 59.55921875 12.84375 59.4609375 C10.13357569 59.22076956 10.13357569 59.22076956 7.25 60.375 C6.56321607 62.03347823 5.9011661 63.70221641 5.25 65.375 C3.72950731 67.57126721 2.18290789 69.69312505 0.5625 71.8125 C-5.10348319 79.36682129 -10.42089728 87.13914402 -15.7097168 94.96069336 C-16.62684448 96.31626343 -16.62684448 96.31626343 -17.5625 97.69921875 C-18.10519531 98.50447998 -18.64789063 99.30974121 -19.20703125 100.1394043 C-20.75 102.375 -20.75 102.375 -22.40576172 104.21630859 C-24.33693498 107.31754979 -24.27137141 109.96001555 -24.4453125 113.58984375 C-24.50197586 114.62897667 -24.50197586 114.62897667 -24.55978394 115.68910217 C-24.67786969 117.8964607 -24.77721539 120.10415733 -24.875 122.3125 C-24.9834508 124.51694324 -25.0958308 126.72111748 -25.2116394 128.92518616 C-25.31515339 130.92754658 -25.40809854 132.93044508 -25.50048828 134.93334961 C-25.7115696 137.84490861 -26.09200725 140.53693944 -26.75 143.375 C-27.08 143.375 -27.41 143.375 -27.75 143.375 C-28.08 141.395 -28.41 139.415 -28.75 137.375 C-29.31847656 137.33761719 -29.88695312 137.30023438 -30.47265625 137.26171875 C-35.82620349 136.80590755 -39.79401498 135.53761165 -44.75 133.375 C-47.42566351 132.86917669 -50.03171953 132.61344566 -52.75 132.375 C-52.75 131.715 -52.75 131.055 -52.75 130.375 C-53.94625 130.41625 -55.1425 130.4575 -56.375 130.5 C-59.27334973 130.59994309 -60.90702553 130.31223206 -63.65234375 129.21484375 C-67.6560832 128.12934062 -69.04424736 128.93226279 -72.6875 130.8125 C-73.84121094 131.38871094 -74.99492187 131.96492187 -76.18359375 132.55859375 C-76.77897949 132.86394043 -77.37436523 133.16928711 -77.98779297 133.48388672 C-80.70622348 134.85854332 -83.47994478 136.10822621 -86.25 137.375 C-93.97331107 140.96618117 -101.64086063 144.67516066 -109.3125 148.375 C-109.9209375 148.66810059 -110.529375 148.96120117 -111.15625 149.26318359 C-114.15562504 150.70873369 -117.15107641 152.16142529 -120.14111328 153.6262207 C-122.59725702 154.82715564 -125.0693984 155.98221593 -127.55810547 157.11401367 C-134.45694115 160.30659899 -139.67862077 163.13573753 -143.75 169.6875 C-144.19746582 170.3484668 -144.64493164 171.00943359 -145.10595703 171.69042969 C-147.8864915 175.84450561 -150.47176813 180.12113355 -152.96484375 184.453125 C-159.30777211 194.83498587 -166.53599498 204.74190877 -173.578125 214.66015625 C-174.80545799 216.37307144 -174.80545799 216.37307144 -175.75 218.375 C-176.41 218.375 -177.07 218.375 -177.75 218.375 C-177.99621094 219.0659375 -178.24242187 219.756875 -178.49609375 220.46875 C-179.94900578 223.83624704 -181.80746283 226.81999028 -183.8125 229.875 C-184.21098145 230.48811035 -184.60946289 231.1012207 -185.02001953 231.73291016 C-188.36817443 236.85586364 -191.82732722 241.89847041 -195.33984375 246.91015625 C-197.15421551 249.50222504 -198.92858297 252.11870473 -200.69140625 254.74609375 C-201.18914551 255.48359863 -201.68688477 256.22110352 -202.19970703 256.98095703 C-203.1786355 258.43280402 -204.15242349 259.88813257 -205.12060547 261.34716797 C-206.27966169 263.05859679 -207.50879473 264.72218136 -208.75 266.375 C-209.41 266.375 -210.07 266.375 -210.75 266.375 C-210.75 267.365 -210.75 268.355 -210.75 269.375 C-222.81844552 267.50231018 -233.67600037 261.42905393 -242.75 253.375 C-243.77867187 252.52035156 -243.77867187 252.52035156 -244.828125 251.6484375 C-255.45455092 242.11710128 -259.89203443 228.09099282 -260.71875 214.19921875 C-260.83426928 200.06254741 -256.86036272 186.94070542 -251.875 173.875 C-249.18220777 166.67923338 -246.8535558 159.51911992 -245 152.0625 C-242.99844398 144.01588209 -240.81153906 137.04702877 -235.75 130.375 C-235.02648573 128.39485568 -234.34734611 126.39678685 -233.75 124.375 C-233.09 124.375 -232.43 124.375 -231.75 124.375 C-231.46769531 123.7975 -231.18539062 123.22 -230.89453125 122.625 C-228.01688938 116.96792929 -225.19606077 111.90757996 -219.75 108.375 C-219.09 108.375 -218.43 108.375 -217.75 108.375 C-217.66492188 107.7046875 -217.57984375 107.034375 -217.4921875 106.34375 C-214.45292248 94.18668993 -205.1801502 83.30355861 -196.75 74.375 C-196.1420459 73.72998535 -195.5340918 73.0849707 -194.90771484 72.42041016 C-186.45652167 63.54360217 -177.83186106 55.38882523 -167.75 48.375 C-167.07211426 47.9011084 -166.39422852 47.4272168 -165.69580078 46.93896484 C-155.38948283 39.78722049 -144.87284818 33.17761427 -133.75 27.375 C-132.89180664 26.92157227 -132.03361328 26.46814453 -131.14941406 26.00097656 C-90.80905757 4.92261228 -45.57503635 -6.27482385 0 0 Z " fill="#AC1506" transform="translate(270.75,10.625)"/>
<path d="M0 0 C1.99601306 0.3564309 3.994845 0.69922675 6 1 C6 1.66 6 2.32 6 3 C6.85271484 2.94779297 6.85271484 2.94779297 7.72265625 2.89453125 C13.32221211 2.69821961 16.83947124 3.65430511 22 6 C23.40950678 6.23535364 24.82784211 6.42261562 26.25 6.5625 C30 7 30 7 33 9 C34.3320556 18.32248352 32.59977443 28.58932224 31.83197021 37.96585083 C30.49101858 54.38450062 29.44371973 70.80413971 28.64697266 87.2578125 C28.61013367 87.99720566 28.57329468 88.73659882 28.53533936 89.49839783 C28.4370724 91.47998699 28.3431168 93.46178867 28.24951172 95.44360352 C27.99883347 99.01662708 27.6784919 102.48153486 27 106 C26.01 106.495 26.01 106.495 25 107 C25.60650391 107.08652832 26.21300781 107.17305664 26.83789062 107.26220703 C29.63899796 108.21805012 30.14360637 109.25886698 31.59375 111.8046875 C32.06022949 112.60559814 32.52670898 113.40650879 33.00732422 114.23168945 C33.49990723 115.10398193 33.99249023 115.97627441 34.5 116.875 C35.57349416 118.72123198 36.64906575 120.56625739 37.7265625 122.41015625 C38.2721582 123.34875488 38.81775391 124.28735352 39.37988281 125.25439453 C41.78659073 129.33303184 44.32341059 133.32347963 46.875 137.3125 C53.16308012 147.19110187 59.23763578 157.19558207 65.30712891 167.20947266 C67.94700821 171.56104757 70.59728541 175.90624105 73.25 180.25 C73.93074585 181.36677124 73.93074585 181.36677124 74.62524414 182.50610352 C75.04281982 183.18987061 75.46039551 183.8736377 75.890625 184.578125 C76.43251465 185.46612793 76.43251465 185.46612793 76.98535156 186.37207031 C77.95917806 187.93450417 78.97875828 189.46813742 80 191 C80 192.32 80 193.64 80 195 C74.46936768 194.41912912 69.29244988 193.38581593 63.9375 191.875 C55.40625421 189.55166285 46.81645785 187.54979438 38.1875 185.625 C35.49476151 185.02357242 32.80204953 184.42202635 30.109375 183.8203125 C29.4347522 183.66964325 28.76012939 183.518974 28.06506348 183.36373901 C17.27826407 180.94947526 6.52168165 178.40378446 -4.23974609 175.87939453 C-8.06092725 174.98575121 -11.88371451 174.09930274 -15.70703125 173.21484375 C-28.32636481 170.29203345 -40.91938396 167.2976484 -53.47753906 164.12207031 C-60.54520814 162.34274741 -67.63429731 160.693056 -74.74609375 159.10058594 C-84.01517066 157.0166641 -93.25705259 154.8212671 -102.5 152.625 C-118.99030152 148.70778559 -135.49059969 144.8359526 -152 141 C-152 137 -152 137 -150.30078125 135.1953125 C-149.16189453 134.10863281 -149.16189453 134.10863281 -148 133 C-146.29197855 130.69326829 -144.74668225 128.28406932 -143.1875 125.875 C-142.29655788 124.51628071 -141.40462963 123.15820754 -140.51171875 121.80078125 C-139.86468994 120.81585693 -139.86468994 120.81585693 -139.20458984 119.81103516 C-137.68476801 117.52606589 -136.09929551 115.29239659 -134.5 113.0625 C-130.05411869 106.78096841 -126.06768579 100.20090221 -122.03393555 93.65063477 C-121.05138591 92.08203545 -120.0267061 90.54005916 -119 89 C-118.34 89 -117.68 89 -117 89 C-116.78472656 88.33871094 -116.56945312 87.67742187 -116.34765625 86.99609375 C-114.53474813 82.96565744 -112.03253808 79.62445088 -109.4375 76.0625 C-105.57626417 70.68236471 -101.79927215 65.27902461 -98.25 59.6875 C-97.8890625 59.1200708 -97.528125 58.5526416 -97.15625 57.96801758 C-96.10408964 56.31206065 -95.0520436 54.6560311 -94 53 C-92.65440325 50.91112123 -91.30049194 48.82757024 -89.9375 46.75 C-89.36902344 45.87859375 -88.80054688 45.0071875 -88.21484375 44.109375 C-87.11849609 42.57023437 -87.11849609 42.57023437 -86 41 C-85.23163818 39.83621826 -85.23163818 39.83621826 -84.44775391 38.64892578 C-79.02517355 31.04529172 -72.99206082 27.93114983 -64.5 24.375 C-63.24250219 23.82468636 -61.9863213 23.27135411 -60.73144531 22.71508789 C-58.27201147 21.62605537 -55.80889682 20.54790678 -53.34179688 19.47607422 C-49.07576249 17.59176359 -44.90256559 15.55811257 -40.75 13.4375 C-39.61046875 12.85871094 -38.4709375 12.27992188 -37.296875 11.68359375 C-35.52532876 10.77892973 -33.75380515 9.87422136 -31.98242188 8.96923828 C-28.36746026 7.1389741 -24.76613321 5.49908075 -21 4 C-19.99324219 3.47921875 -18.98648438 2.9584375 -17.94921875 2.421875 C-10.99537431 -1.14249077 -7.34471257 -2.96365595 0 0 Z " fill="#940805" transform="translate(212,140)"/>
<path d="M0 0 C3.02246275 0.3487457 4.41700374 0.10609581 7.25 -0.625 C11.267278 -0.31597862 14.74787732 0.47999 18.484375 1.921875 C19.19303711 2.19354492 19.90169922 2.46521484 20.63183594 2.74511719 C21.16583008 2.95297852 21.69982422 3.16083984 22.25 3.375 C22.15460938 4.66535156 22.05921875 5.95570312 21.9609375 7.28515625 C21.8483207 9.00256247 21.7363772 10.72001294 21.625 12.4375 C21.56054688 13.28505859 21.49609375 14.13261719 21.4296875 15.00585938 C20.8361961 24.61300146 23.76283562 30.74009823 28.9375 38.625 C29.47334717 39.45966797 30.00919434 40.29433594 30.5612793 41.15429688 C32.8883134 44.77420571 35.24335626 48.37414869 37.6328125 51.953125 C38.26960938 52.91734375 38.90640625 53.8815625 39.5625 54.875 C40.11550781 55.6896875 40.66851562 56.504375 41.23828125 57.34375 C42.25 59.375 42.25 59.375 41.25 62.375 C38.47882696 62.23419445 35.70817359 62.08756882 32.9375 61.9375 C32.15181641 61.89818359 31.36613281 61.85886719 30.55664062 61.81835938 C29.4206543 61.75551758 29.4206543 61.75551758 28.26171875 61.69140625 C27.56522217 61.65474854 26.86872559 61.61809082 26.15112305 61.58032227 C24.25 61.375 24.25 61.375 21.25 60.375 C19.42158659 60.12717288 17.58701959 59.92283786 15.75 59.75 C14.7909375 59.65460938 13.831875 59.55921875 12.84375 59.4609375 C10.13357569 59.22076956 10.13357569 59.22076956 7.25 60.375 C6.56321607 62.03347823 5.9011661 63.70221641 5.25 65.375 C3.72950731 67.57126721 2.18290789 69.69312505 0.5625 71.8125 C-5.10348319 79.36682129 -10.42089728 87.13914402 -15.7097168 94.96069336 C-16.62684448 96.31626343 -16.62684448 96.31626343 -17.5625 97.69921875 C-18.10519531 98.50447998 -18.64789063 99.30974121 -19.20703125 100.1394043 C-20.75 102.375 -20.75 102.375 -22.40576172 104.21630859 C-24.33693498 107.31754979 -24.27137141 109.96001555 -24.4453125 113.58984375 C-24.50197586 114.62897667 -24.50197586 114.62897667 -24.55978394 115.68910217 C-24.67786969 117.8964607 -24.77721539 120.10415733 -24.875 122.3125 C-24.9834508 124.51694324 -25.0958308 126.72111748 -25.2116394 128.92518616 C-25.31515339 130.92754658 -25.40809854 132.93044508 -25.50048828 134.93334961 C-25.7115696 137.84490861 -26.09200725 140.53693944 -26.75 143.375 C-27.08 143.375 -27.41 143.375 -27.75 143.375 C-28.08 141.395 -28.41 139.415 -28.75 137.375 C-29.31847656 137.33761719 -29.88695312 137.30023438 -30.47265625 137.26171875 C-35.82620349 136.80590755 -39.79401498 135.53761165 -44.75 133.375 C-47.42566351 132.86917669 -50.03171953 132.61344566 -52.75 132.375 C-52.75 131.715 -52.75 131.055 -52.75 130.375 C-53.94625 130.41625 -55.1425 130.4575 -56.375 130.5 C-59.27334973 130.59994309 -60.90702553 130.31223206 -63.65234375 129.21484375 C-67.6560832 128.12934062 -69.04424736 128.93226279 -72.6875 130.8125 C-73.84121094 131.38871094 -74.99492187 131.96492187 -76.18359375 132.55859375 C-76.77897949 132.86394043 -77.37436523 133.16928711 -77.98779297 133.48388672 C-80.70622348 134.85854332 -83.47994478 136.10822621 -86.25 137.375 C-93.97331107 140.96618117 -101.64086063 144.67516066 -109.3125 148.375 C-109.9209375 148.66810059 -110.529375 148.96120117 -111.15625 149.26318359 C-114.15562504 150.70873369 -117.15107641 152.16142529 -120.14111328 153.6262207 C-122.59725702 154.82715564 -125.0693984 155.98221593 -127.55810547 157.11401367 C-134.45694115 160.30659899 -139.67862077 163.13573753 -143.75 169.6875 C-144.19746582 170.3484668 -144.64493164 171.00943359 -145.10595703 171.69042969 C-147.8864915 175.84450561 -150.47176813 180.12113355 -152.96484375 184.453125 C-159.30777211 194.83498587 -166.53599498 204.74190877 -173.578125 214.66015625 C-174.80545799 216.37307144 -174.80545799 216.37307144 -175.75 218.375 C-176.41 218.375 -177.07 218.375 -177.75 218.375 C-177.99621094 219.0659375 -178.24242187 219.756875 -178.49609375 220.46875 C-179.94900578 223.83624704 -181.80746283 226.81999028 -183.8125 229.875 C-184.21098145 230.48811035 -184.60946289 231.1012207 -185.02001953 231.73291016 C-188.36817443 236.85586364 -191.82732722 241.89847041 -195.33984375 246.91015625 C-197.15421551 249.50222504 -198.92858297 252.11870473 -200.69140625 254.74609375 C-201.18914551 255.48359863 -201.68688477 256.22110352 -202.19970703 256.98095703 C-203.1786355 258.43280402 -204.15242349 259.88813257 -205.12060547 261.34716797 C-206.27966169 263.05859679 -207.50879473 264.72218136 -208.75 266.375 C-209.41 266.375 -210.07 266.375 -210.75 266.375 C-210.75 267.365 -210.75 268.355 -210.75 269.375 C-222.81844552 267.50231018 -233.67600037 261.42905393 -242.75 253.375 C-243.77867187 252.52035156 -243.77867187 252.52035156 -244.828125 251.6484375 C-255.45455092 242.11710128 -259.89203443 228.09099282 -260.71875 214.19921875 C-260.83426928 200.06254741 -256.86036272 186.94070542 -251.875 173.875 C-249.18220777 166.67923338 -246.8535558 159.51911992 -245 152.0625 C-242.99844398 144.01588209 -240.81153906 137.04702877 -235.75 130.375 C-235.02648573 128.39485568 -234.34734611 126.39678685 -233.75 124.375 C-233.09 124.375 -232.43 124.375 -231.75 124.375 C-231.46769531 123.7975 -231.18539062 123.22 -230.89453125 122.625 C-228.01688938 116.96792929 -225.19606077 111.90757996 -219.75 108.375 C-219.09 108.375 -218.43 108.375 -217.75 108.375 C-217.63785156 107.64925781 -217.52570313 106.92351562 -217.41015625 106.17578125 C-216.72038613 103.24936007 -215.69489186 101.15212191 -214.1875 98.5625 C-213.73246094 97.77230469 -213.27742188 96.98210937 -212.80859375 96.16796875 C-212.45925781 95.57628906 -212.10992187 94.98460938 -211.75 94.375 C-210.625 98.125 -210.625 98.125 -211.75 100.375 C-212.2340211 109.17279533 -211.65700871 118.07872173 -211.3125 126.875 C-211.27334473 127.91350098 -211.23418945 128.95200195 -211.19384766 130.02197266 C-210.95882918 137.25952421 -210.95882918 137.25952421 -209.75 144.375 C-207.79836882 145.81137698 -207.79836882 145.81137698 -205.75 146.375 C-205.42 145.715 -205.09 145.055 -204.75 144.375 C-204.42 145.695 -204.09 147.015 -203.75 148.375 C-201.11 149.035 -198.47 149.695 -195.75 150.375 C-195.75 151.035 -195.75 151.695 -195.75 152.375 C-139.52061365 159.33352685 -79.69705779 131.72709509 -36.01025391 98.03320312 C-17.09300859 83.11477071 6.52588627 61.61621525 10.25 36.375 C11.13537438 26.98722084 9.33038064 20.14572903 3.625 12.625 C-3.63850783 4.78041154 -15.61237159 1.5411206 -26.00048828 1.13623047 C-30.66833379 1.04576322 -35.3324224 1.11172454 -40 1.1875 C-41.63149796 1.20258544 -43.26300953 1.21626696 -44.89453125 1.22851562 C-48.84669732 1.2611898 -52.79819362 1.31275426 -56.75 1.375 C-56.75 1.045 -56.75 0.715 -56.75 0.375 C-38.19415035 -2.33488893 -18.58680656 -2.55905308 0 0 Z " fill="#9A0E0B" transform="translate(270.75,10.625)"/>
<path d="M0 0 C12.30956938 3.38834837 24.5475271 7.0139379 36.74472046 10.78549194 C38.2724303 11.25644311 39.80124235 11.72383572 41.33120728 12.18740845 C60.63359151 18.04670712 77.13916834 25.93658618 87.7578125 43.98828125 C96.41485588 60.44502797 95.07495749 76.9169469 90.0234375 94.375 C89 97 89 97 87 98 C86.23057981 99.70286407 85.53541748 101.43947191 84.875 103.1875 C81.92723488 110.54363458 78.04725148 117.21106204 74 124 C73.34 124 72.68 124 72 124 C72 124.99 72 125.98 72 127 C71.34 127 70.68 127 70 127 C69.67 127.99 69.34 128.98 69 130 C62.53799512 128.74155463 56.11488729 127.37245986 49.70703125 125.86328125 C48.42293617 125.5631588 48.42293617 125.5631588 47.11289978 125.25697327 C44.3457858 124.6101497 41.57914259 123.9613366 38.8125 123.3125 C25.80530109 120.26829119 12.79144612 117.2689232 -0.25 114.375 C-15.59798768 110.95660317 -30.80174232 107.02459826 -46 103 C-43.23385091 98.01837038 -40.25468618 93.29951572 -37 88.625 C-36.29411743 87.6043042 -36.29411743 87.6043042 -35.57397461 86.56298828 C-31.44171286 80.60149205 -27.26070769 74.6740694 -23.06054688 68.76025391 C-22.58810547 68.09429199 -22.11566406 67.42833008 -21.62890625 66.7421875 C-20.95625732 65.79617676 -20.95625732 65.79617676 -20.27001953 64.83105469 C-19.05786089 63.08342112 -17.91600433 61.30381705 -16.77734375 59.5078125 C-16.19082031 58.68023437 -15.60429687 57.85265625 -15 57 C-14.34 57 -13.68 57 -13 57 C-12.505 56.01 -12.505 56.01 -12 55 C-10.22880197 55.14133499 -8.45804713 55.28823208 -6.6875 55.4375 C-5.70136719 55.51871094 -4.71523438 55.59992188 -3.69921875 55.68359375 C-1 56 -1 56 2 57 C3.33363703 57.14403348 4.67218046 57.24590423 6.01171875 57.31640625 C7.14770508 57.37924805 7.14770508 57.37924805 8.30664062 57.44335938 C9.09232422 57.48267578 9.87800781 57.52199219 10.6875 57.5625 C11.88342773 57.62727539 11.88342773 57.62727539 13.10351562 57.69335938 C15.06881447 57.79927368 17.03438496 57.90012551 19 58 C17.3823497 53.37048147 14.93286547 49.48274505 12.3125 45.375 C11.86841797 44.66931885 11.42433594 43.9636377 10.96679688 43.23657227 C8.96027524 40.05415077 6.92933986 36.89304449 4.85546875 33.75390625 C-2.27921437 22.9242083 -2.87811215 14.59923986 -0.4375 2.125 C-0.293125 1.42375 -0.14875 0.7225 0 0 Z " fill="#8C0D06" transform="translate(293,14)"/>
<path d="M0 0 C3.02246275 0.3487457 4.41700374 0.10609581 7.25 -0.625 C11.267278 -0.31597862 14.74787732 0.47999 18.484375 1.921875 C19.19303711 2.19354492 19.90169922 2.46521484 20.63183594 2.74511719 C21.16583008 2.95297852 21.69982422 3.16083984 22.25 3.375 C22.15460938 4.66535156 22.05921875 5.95570312 21.9609375 7.28515625 C21.8483207 9.00256247 21.7363772 10.72001294 21.625 12.4375 C21.56054688 13.28505859 21.49609375 14.13261719 21.4296875 15.00585938 C20.8361961 24.61300146 23.76283562 30.74009823 28.9375 38.625 C29.47334717 39.45966797 30.00919434 40.29433594 30.5612793 41.15429688 C32.8883134 44.77420571 35.24335626 48.37414869 37.6328125 51.953125 C38.26960938 52.91734375 38.90640625 53.8815625 39.5625 54.875 C40.11550781 55.6896875 40.66851562 56.504375 41.23828125 57.34375 C42.25 59.375 42.25 59.375 41.25 62.375 C38.47882696 62.23419445 35.70817359 62.08756882 32.9375 61.9375 C32.15181641 61.89818359 31.36613281 61.85886719 30.55664062 61.81835938 C29.4206543 61.75551758 29.4206543 61.75551758 28.26171875 61.69140625 C27.56522217 61.65474854 26.86872559 61.61809082 26.15112305 61.58032227 C24.25 61.375 24.25 61.375 21.25 60.375 C19.42158659 60.12717288 17.58701959 59.92283786 15.75 59.75 C14.7909375 59.65460938 13.831875 59.55921875 12.84375 59.4609375 C10.13357569 59.22076956 10.13357569 59.22076956 7.25 60.375 C6.56321607 62.03347823 5.9011661 63.70221641 5.25 65.375 C3.72950731 67.57126721 2.18290789 69.69312505 0.5625 71.8125 C-5.10348319 79.36682129 -10.42089728 87.13914402 -15.7097168 94.96069336 C-16.62684448 96.31626343 -16.62684448 96.31626343 -17.5625 97.69921875 C-18.10519531 98.50447998 -18.64789063 99.30974121 -19.20703125 100.1394043 C-20.75 102.375 -20.75 102.375 -22.40576172 104.21630859 C-24.33693498 107.31754979 -24.27137141 109.96001555 -24.4453125 113.58984375 C-24.50197586 114.62897667 -24.50197586 114.62897667 -24.55978394 115.68910217 C-24.67786969 117.8964607 -24.77721539 120.10415733 -24.875 122.3125 C-24.9834508 124.51694324 -25.0958308 126.72111748 -25.2116394 128.92518616 C-25.31515339 130.92754658 -25.40809854 132.93044508 -25.50048828 134.93334961 C-25.7115696 137.84490861 -26.09200725 140.53693944 -26.75 143.375 C-27.08 143.375 -27.41 143.375 -27.75 143.375 C-28.08 141.395 -28.41 139.415 -28.75 137.375 C-29.31847656 137.33761719 -29.88695312 137.30023438 -30.47265625 137.26171875 C-35.82620349 136.80590755 -39.79401498 135.53761165 -44.75 133.375 C-47.42566351 132.86917669 -50.03171953 132.61344566 -52.75 132.375 C-52.75 131.715 -52.75 131.055 -52.75 130.375 C-53.94625 130.41625 -55.1425 130.4575 -56.375 130.5 C-59.27334973 130.59994309 -60.90702553 130.31223206 -63.65234375 129.21484375 C-67.6560832 128.12934062 -69.04424736 128.93226279 -72.6875 130.8125 C-73.84121094 131.38871094 -74.99492187 131.96492187 -76.18359375 132.55859375 C-76.77897949 132.86394043 -77.37436523 133.16928711 -77.98779297 133.48388672 C-80.70622348 134.85854332 -83.47994478 136.10822621 -86.25 137.375 C-93.97331107 140.96618117 -101.64086063 144.67516066 -109.3125 148.375 C-109.9209375 148.66810059 -110.529375 148.96120117 -111.15625 149.26318359 C-114.15589286 150.70886276 -117.15154056 152.16177335 -120.14160156 153.62719727 C-122.59533692 154.82708105 -125.06559457 155.97849062 -127.55371094 157.10522461 C-134.58478985 160.34794292 -139.74850693 163.2626925 -143.875 169.9375 C-144.30296875 170.57107422 -144.7309375 171.20464844 -145.171875 171.85742188 C-146.39491695 173.67885398 -147.57397808 175.522993 -148.75 177.375 C-149.51508092 178.53203583 -150.28307253 179.68715512 -151.0546875 180.83984375 C-151.61414063 181.67644531 -152.17359375 182.51304687 -152.75 183.375 C-156.47953469 182.89866991 -160.20855688 182.41843748 -163.9375 181.9375 C-165.52014648 181.73543945 -165.52014648 181.73543945 -167.13476562 181.52929688 C-168.15634766 181.39716797 -169.17792969 181.26503906 -170.23046875 181.12890625 C-171.16785889 181.00845947 -172.10524902 180.8880127 -173.07104492 180.76391602 C-175.65454734 180.38885729 -178.19568678 179.91179064 -180.75 179.375 C-180.75 178.715 -180.75 178.055 -180.75 177.375 C-181.64332031 177.58125 -182.53664063 177.7875 -183.45703125 178 C-189.19508635 178.82034113 -194.79841615 177.40443414 -200.4375 176.375 C-202.6692508 175.97177916 -204.90229459 175.57563317 -207.13671875 175.1875 C-208.11858154 175.00832031 -209.10044434 174.82914063 -210.11206055 174.64453125 C-213.5303901 174.2952637 -215.71175324 174.85587662 -218.75 176.375 C-224.71942016 149.4173526 -224.71942016 149.4173526 -223.75 137.375 C-224.74 137.705 -225.73 138.035 -226.75 138.375 C-229.01171875 138.03515625 -229.01171875 138.03515625 -231.4375 137.4375 C-232.24574219 137.24285156 -233.05398437 137.04820312 -233.88671875 136.84765625 C-234.50160156 136.69167969 -235.11648437 136.53570312 -235.75 136.375 C-235.75 137.035 -235.75 137.695 -235.75 138.375 C-236.41 138.375 -237.07 138.375 -237.75 138.375 C-237.811875 139.138125 -237.87375 139.90125 -237.9375 140.6875 C-238.89950191 145.05350868 -240.6399323 148.6872159 -242.59375 152.69140625 C-243.70650724 155.27405567 -244.30945806 157.60659443 -244.75 160.375 C-245.41 160.375 -246.07 160.375 -246.75 160.375 C-242.76838235 137.39338235 -242.76838235 137.39338235 -235.75 130.375 C-235.03591666 128.39143517 -234.36382258 126.39184563 -233.75 124.375 C-233.09 124.375 -232.43 124.375 -231.75 124.375 C-231.46769531 123.7975 -231.18539062 123.22 -230.89453125 122.625 C-228.01688938 116.96792929 -225.19606077 111.90757996 -219.75 108.375 C-219.09 108.375 -218.43 108.375 -217.75 108.375 C-217.63785156 107.64925781 -217.52570313 106.92351562 -217.41015625 106.17578125 C-216.72038613 103.24936007 -215.69489186 101.15212191 -214.1875 98.5625 C-213.73246094 97.77230469 -213.27742188 96.98210937 -212.80859375 96.16796875 C-212.45925781 95.57628906 -212.10992187 94.98460938 -211.75 94.375 C-210.625 98.125 -210.625 98.125 -211.75 100.375 C-212.2340211 109.17279533 -211.65700871 118.07872173 -211.3125 126.875 C-211.27334473 127.91350098 -211.23418945 128.95200195 -211.19384766 130.02197266 C-210.95882918 137.25952421 -210.95882918 137.25952421 -209.75 144.375 C-207.79836882 145.81137698 -207.79836882 145.81137698 -205.75 146.375 C-205.42 145.715 -205.09 145.055 -204.75 144.375 C-204.42 145.695 -204.09 147.015 -203.75 148.375 C-201.11 149.035 -198.47 149.695 -195.75 150.375 C-195.75 151.035 -195.75 151.695 -195.75 152.375 C-139.52061365 159.33352685 -79.69705779 131.72709509 -36.01025391 98.03320312 C-17.09300859 83.11477071 6.52588627 61.61621525 10.25 36.375 C11.13537438 26.98722084 9.33038064 20.14572903 3.625 12.625 C-3.63850783 4.78041154 -15.61237159 1.5411206 -26.00048828 1.13623047 C-30.66833379 1.04576322 -35.3324224 1.11172454 -40 1.1875 C-41.63149796 1.20258544 -43.26300953 1.21626696 -44.89453125 1.22851562 C-48.84669732 1.2611898 -52.79819362 1.31275426 -56.75 1.375 C-56.75 1.045 -56.75 0.715 -56.75 0.375 C-38.19415035 -2.33488893 -18.58680656 -2.55905308 0 0 Z " fill="#F3EEEE" transform="translate(270.75,10.625)"/>
<path d="M0 0 C1.99601306 0.3564309 3.994845 0.69922675 6 1 C6 1.66 6 2.32 6 3 C6.85271484 2.94779297 6.85271484 2.94779297 7.72265625 2.89453125 C13.32221211 2.69821961 16.83947124 3.65430511 22 6 C23.40950678 6.23535364 24.82784211 6.42261562 26.25 6.5625 C30 7 30 7 33 9 C34.3320556 18.32248352 32.59977443 28.58932224 31.83197021 37.96585083 C30.49101858 54.38450062 29.44371973 70.80413971 28.64697266 87.2578125 C28.61013367 87.99720566 28.57329468 88.73659882 28.53533936 89.49839783 C28.4370724 91.47998699 28.3431168 93.46178867 28.24951172 95.44360352 C28.00000734 98.99989535 27.54821739 102.47845292 27 106 C20.49135442 101.97143794 14.20707606 97.75278066 8.046875 93.2109375 C4.59226708 90.70413226 1.08580593 88.28376422 -2.4375 85.875 C-8.59187562 81.66613443 -14.71100541 77.41015884 -20.8125 73.125 C-27.38272307 68.51130211 -33.98563872 63.95106187 -40.625 59.4375 C-47.76787629 54.57879956 -54.80513961 49.59068158 -61.77587891 44.48803711 C-66.16359853 41.2847231 -70.61940763 38.27135649 -75.22802734 35.39233398 C-77 34 -77 34 -78 31 C-77.23558594 30.64808594 -76.47117188 30.29617187 -75.68359375 29.93359375 C-60.99876301 23.16549486 -46.38384378 16.3267895 -31.98242188 8.96923828 C-28.36746026 7.1389741 -24.76613321 5.49908075 -21 4 C-19.99324219 3.47921875 -18.98648438 2.9584375 -17.94921875 2.421875 C-10.99537431 -1.14249077 -7.34471257 -2.96365595 0 0 Z " fill="#BA2017" transform="translate(212,140)"/>
<path d="M0 0 C2.72043684 2.4644139 4.47134 5.18268416 6.37109375 8.3125 C7.34647095 9.91037354 7.34647095 9.91037354 8.34155273 11.54052734 C8.85381912 12.38608185 8.85381912 12.38608185 9.37643433 13.24871826 C11.18007439 16.22561402 12.99710135 19.19432837 14.8125 22.1640625 C15.17456039 22.75716217 15.53662079 23.35026184 15.90965271 23.96133423 C18.86686861 28.79974301 21.8880487 33.5944168 24.9375 38.375 C30.80786982 47.6003067 36.47025206 56.95083313 42.12670898 66.30810547 C42.47572769 66.88508179 42.8247464 67.46205811 43.18434143 68.05651855 C44.18692928 69.71552792 45.18700687 71.37605349 46.18701172 73.03662109 C47.7468909 75.58628625 49.36236334 78.08483338 51.00390625 80.58203125 C53 84 53 84 53 88 C46.79786153 87.37547911 41.00570586 86.0842258 35 84.4375 C33.69482422 84.08655273 33.69482422 84.08655273 32.36328125 83.72851562 C30.24085272 83.15709256 28.11986406 82.58085043 26 82 C26 81.67 26 81.34 26 81 C29.3 81.33 32.6 81.66 36 82 C36 81.34 36 80.68 36 80 C34.576875 79.62875 34.576875 79.62875 33.125 79.25 C30.28670573 78.43511344 27.57391642 77.46966669 24.83984375 76.35546875 C20.19179556 74.47739226 15.53441245 72.6248829 10.87109375 70.78515625 C9.75260796 70.34369263 9.75260796 70.34369263 8.61152649 69.89331055 C7.03708576 69.27193886 5.46260659 68.65066459 3.88809204 68.02947998 C1.39159433 67.04438606 -1.10463832 66.05862282 -3.60083008 65.07275391 C-11.87807401 61.80450623 -20.15812339 58.54373349 -28.4453125 55.30078125 C-30.65647213 54.43424915 -32.86754334 53.56749185 -35.07858276 52.70065308 C-36.46383572 52.15831867 -37.8495048 51.61704569 -39.23562622 51.07693481 C-46.387472 48.29005298 -53.46331912 45.40702482 -60.42944336 42.17871094 C-64.63977932 40.24809055 -68.91325067 38.47097537 -73.1875 36.6875 C-74.04408203 36.32849609 -74.90066406 35.96949219 -75.78320312 35.59960938 C-77.85485695 34.731598 -79.92711725 33.86507146 -82 33 C-81 31 -81 31 -78.64941406 30.16552734 C-77.09818848 29.75488037 -77.09818848 29.75488037 -75.515625 29.3359375 C-74.36368652 29.02301758 -73.21174805 28.71009766 -72.02490234 28.38769531 C-70.77918457 28.05350586 -69.5334668 27.71931641 -68.25 27.375 C-44.42460954 20.79221511 -22.02165387 11.22146884 0 0 Z " fill="#C71A1F" transform="translate(239,247)"/>
<path d="M0 0 C0.33 0 0.66 0 1 0 C1.1441832 5.98703572 0.62698675 11.5919838 -0.3125 17.5 C-0.43044922 18.28375 -0.54839844 19.0675 -0.66992188 19.875 C-1.43434056 24.83000114 -2.33486071 29.74696133 -3.29296875 34.66796875 C-5.77332154 47.6015581 -7.6545919 60.64616676 -9.66674805 73.65911865 C-10.21887066 77.22678124 -10.77354271 80.7940472 -11.328125 84.36132812 C-11.97151033 88.5000533 -12.61463079 92.63881763 -13.25566101 96.77790833 C-14.14600169 102.5230621 -15.0389486 108.26763504 -15.95629883 114.00854492 C-16.09612183 114.88431686 -16.23594482 115.76008881 -16.38000488 116.66239929 C-16.62749669 118.20719685 -16.87650764 119.75175238 -17.12756348 121.29597473 C-18.01706601 126.8447106 -18.63460259 132.3930398 -19 138 C-19.66 138 -20.32 138 -21 138 C-21.58201172 136.54013672 -21.58201172 136.54013672 -22.17578125 135.05078125 C-24.12283729 130.52050235 -26.62108747 126.38944667 -29.1875 122.1875 C-29.70505859 121.33293213 -30.22261719 120.47836426 -30.75585938 119.59790039 C-32.49765815 116.72807711 -34.24784735 113.86351272 -36 111 C-36.63760254 109.95650391 -37.27520508 108.91300781 -37.93212891 107.83789062 C-44.69343499 96.78266667 -51.49386371 85.75426128 -58.4375 74.8125 C-62.09105467 69.05046293 -65.71289831 63.27191638 -69.25 57.4375 C-69.63341553 56.81141846 -70.01683105 56.18533691 -70.41186523 55.5402832 C-73 51.23603 -73 51.23603 -73 49 C-72.19502075 48.54898926 -72.19502075 48.54898926 -71.3737793 48.08886719 C-52.6056811 37.54414103 -34.4025217 26.47158615 -17.12695312 13.60498047 C-12.21901344 10 -12.21901344 10 -10 10 C-10 9.34 -10 8.68 -10 8 C-8.06640625 6.30859375 -8.06640625 6.30859375 -5.5625 4.4375 C-2.67307373 2.34532911 -2.67307373 2.34532911 0 0 Z " fill="#891103" transform="translate(313,197)"/>
<path d="M0 0 C1.93784265 0.14120714 3.87526955 0.28812873 5.8125 0.4375 C7.43091797 0.55931641 7.43091797 0.55931641 9.08203125 0.68359375 C12 1 12 1 15 2 C17.85874962 2.25499253 20.69867432 2.46338992 23.5625 2.625 C24.34302734 2.6765625 25.12355469 2.728125 25.92773438 2.78125 C30.08944404 3.15842668 30.08944404 3.15842668 34 2 C42.22318925 14.1992368 50.2024306 26.5363342 58.07470703 38.96435547 C61.24674773 43.96576987 64.42991118 48.96004247 67.61853027 53.95089722 C68.66654937 55.59218943 69.71268864 57.2346815 70.75878906 58.87719727 C71.39913086 59.87936279 72.03947266 60.88152832 72.69921875 61.9140625 C73.26471436 62.8004541 73.83020996 63.6868457 74.4128418 64.60009766 C75.95115583 67.00514908 75.95115583 67.00514908 77.70629883 69.13037109 C79 71 79 71 79 74 C69.14824271 72.3793941 59.46596019 70.0855117 49.75 67.8125 C46.24511341 66.99600949 42.7398039 66.18134628 39.234375 65.3671875 C37.92502991 65.06278999 37.92502991 65.06278999 36.5892334 64.75224304 C31.27855824 63.52016267 25.96330333 62.31191979 20.640625 61.1328125 C2.64899741 57.14297576 -15.18753906 52.71685642 -33 48 C-30.23385091 43.01837038 -27.25468618 38.29951572 -24 33.625 C-23.29411743 32.6043042 -23.29411743 32.6043042 -22.57397461 31.56298828 C-18.44171286 25.60149205 -14.26070769 19.6740694 -10.06054688 13.76025391 C-9.58810547 13.09429199 -9.11566406 12.42833008 -8.62890625 11.7421875 C-7.95625732 10.79617676 -7.95625732 10.79617676 -7.27001953 9.83105469 C-6.05786089 8.08342112 -4.91600433 6.30381705 -3.77734375 4.5078125 C-3.19082031 3.68023437 -2.60429687 2.85265625 -2 2 C-1.34 2 -0.68 2 0 2 C0 1.34 0 0.68 0 0 Z " fill="#B4150A" transform="translate(280,69)"/>
<path d="M0 0 C0.66 0 1.32 0 2 0 C1.3437919 3.88769819 0.19949507 7.32063302 -1.2578125 10.98046875 C-1.71518799 12.13587158 -2.17256348 13.29127441 -2.64379883 14.48168945 C-3.13259521 15.70460693 -3.6213916 16.92752441 -4.125 18.1875 C-4.62895566 19.45709435 -5.13245216 20.72687106 -5.63549805 21.99682617 C-6.63267109 24.51375977 -7.63148488 27.03003228 -8.63134766 29.54589844 C-10.38028174 33.95972637 -12.1003049 38.38432365 -13.8125 42.8125 C-17.25512518 51.69122121 -20.79794645 60.52843522 -24.35327148 69.36254883 C-28.30808016 79.21386979 -32.16519613 89.10143865 -36 99 C-41.37147754 112.86508979 -46.76809692 126.71636941 -52.5 140.4375 C-54.96506975 146.38127509 -57.28668198 152.35735074 -59.51074219 158.39575195 C-62.37820662 166.12302223 -65.48267737 173.75641057 -68.57348633 181.39648438 C-68.98751709 182.42322266 -69.40154785 183.44996094 -69.828125 184.5078125 C-70.1984082 185.42191895 -70.56869141 186.33602539 -70.95019531 187.27783203 C-72.06095293 190.15805237 -73.04515238 193.06478762 -74 196 C-74.33 196 -74.66 196 -75 196 C-75.264746 188.30128925 -74.24275089 181.08656488 -72.98828125 173.5 C-72.66889543 171.51344457 -72.3495113 169.52688888 -72.03020668 167.5403204 C-71.69320245 165.45206941 -71.35278068 163.36440298 -71.01126099 161.27688599 C-70.30806998 156.97854279 -69.61378265 152.67879514 -68.92163086 148.37866211 C-68.80749124 147.66965854 -68.69335161 146.96065496 -68.57575321 146.23016644 C-68.34663376 144.80689143 -68.11753976 143.38361232 -67.8884716 141.96032906 C-67.54811523 139.84754258 -67.20684178 137.73490593 -66.8653717 135.62229919 C-65.00072926 124.07538292 -63.22319278 112.51724332 -61.53442383 100.94335938 C-60.54272274 94.23567747 -59.43159379 87.56104224 -58.07910156 80.91612244 C-57.45374 77.78423404 -56.98996948 74.78593882 -56.84033203 71.5925293 C-56.21309397 60.41868264 -49.21721737 55.02424649 -41.4375 47.875 C-38.92635907 45.50767457 -36.42947684 43.12558171 -33.93359375 40.7421875 C-33.32785522 40.16809143 -32.7221167 39.59399536 -32.09802246 39.00250244 C-26.89499582 34.02375339 -22.38544246 28.71914472 -18 23 C-16.94055335 21.65589582 -15.88070501 20.31210809 -14.8203125 18.96875 C-13.45526066 17.21589935 -12.09411808 15.4600964 -10.734375 13.703125 C-8.61080586 10.97808252 -6.46372251 8.41865442 -4 6 C-2.97695052 4.34738161 -1.97383946 2.68208635 -1 1 C-0.67 0.67 -0.34 0.34 0 0 Z " fill="#AA0A0C" transform="translate(369,137)"/>
<path d="M0 0 C0.66 0.66 1.32 1.32 2 2 C2.80630859 1.48179687 2.80630859 1.48179687 3.62890625 0.953125 C6.75088072 -0.30183673 8.64166173 0.14705307 11.9375 0.75 C13.08347656 0.94851562 14.22945312 1.14703125 15.41015625 1.3515625 C17.18712891 1.67253906 17.18712891 1.67253906 19 2 C28.94597079 3.71934917 28.94597079 3.71934917 39 4 C39 4.66 39 5.32 39 6 C39.87140625 6.04898438 40.7428125 6.09796875 41.640625 6.1484375 C63.52193995 7.52193995 63.52193995 7.52193995 67 11 C64.64690906 14.45906637 62.29232489 17.91711387 59.9375 21.375 C58.95233398 22.82326172 58.95233398 22.82326172 57.94726562 24.30078125 C54.12699254 29.90886686 50.2710986 35.48783827 46.34985352 41.02587891 C44.96789779 42.95113302 44.96789779 42.95113302 44 45 C43.34 45 42.68 45 42 45 C41.75378906 45.6909375 41.50757813 46.381875 41.25390625 47.09375 C39.80099422 50.46124704 37.94253717 53.44499028 35.9375 56.5 C35.33977783 57.41966553 35.33977783 57.41966553 34.72998047 58.35791016 C31.38182557 63.48086364 27.92267278 68.52347041 24.41015625 73.53515625 C22.59578449 76.12722504 20.82141703 78.74370473 19.05859375 81.37109375 C18.56085449 82.10859863 18.06311523 82.84610352 17.55029297 83.60595703 C16.5713645 85.05780402 15.59757651 86.51313257 14.62939453 87.97216797 C13.47033831 89.68359679 12.24120527 91.34718136 11 93 C10.34 93 9.68 93 9 93 C8.88930176 91.6903125 8.77860352 90.380625 8.66455078 89.03125 C8.24653153 84.09575261 7.82429038 79.16062341 7.40087891 74.22558594 C7.21941785 72.10393685 7.03904843 69.98219407 6.85986328 67.86035156 C5.92089573 56.75010979 4.92448475 45.67115806 3.47314453 34.61523438 C2.69494922 28.6691476 2.03795685 22.70984682 1.375 16.75 C1.2409375 15.56792969 1.106875 14.38585937 0.96875 13.16796875 C0.84242187 12.03488281 0.71609375 10.90179688 0.5859375 9.734375 C0.4729834 8.72600586 0.3600293 7.71763672 0.24365234 6.67871094 C0 4 0 4 0 0 Z " fill="#CF3632" transform="translate(51,184)"/>
<path d="M0 0 C12.51720872 3.44550345 24.95154979 7.1529008 37.34896851 11.00521851 C38.95217245 11.50252003 40.55620364 11.99716231 42.16104126 12.48916626 C44.43794958 13.18824306 46.71147587 13.89738729 48.984375 14.609375 C49.67824814 14.82065536 50.37212128 15.03193573 51.08702087 15.24961853 C52.74419056 15.77511269 54.37564387 16.3804658 56 17 C56.495 17.99 56.495 17.99 57 19 C55.7625 19.268125 54.525 19.53625 53.25 19.8125 C49.72628265 20.59011046 46.23959837 21.45747629 42.75 22.375 C35.87907956 24.1262359 28.9210971 25.38377269 21.94628906 26.64208984 C21.06295898 26.80402832 20.17962891 26.9659668 19.26953125 27.1328125 C18.47135986 27.27605957 17.67318848 27.41930664 16.85083008 27.56689453 C14.99451253 27.82969005 14.99451253 27.82969005 14 29 C10.32360075 29.76566332 6.75490217 30.16992988 3 30 C-0.07440183 27.58439856 -0.75590592 25.91535279 -1.75 22.1875 C-2.36065295 14.4016749 -1.57176938 7.6343084 0 0 Z " fill="#C31511" transform="translate(293,14)"/>
<path d="M0 0 C1.93784265 0.14120714 3.87526955 0.28812873 5.8125 0.4375 C7.43091797 0.55931641 7.43091797 0.55931641 9.08203125 0.68359375 C12 1 12 1 15 2 C17.85874962 2.25499253 20.69867432 2.46338992 23.5625 2.625 C24.34302734 2.6765625 25.12355469 2.728125 25.92773438 2.78125 C30.08944404 3.15842668 30.08944404 3.15842668 34 2 C35.37228357 3.88276105 36.72228701 5.7817769 38.0625 7.6875 C38.81660156 8.74324219 39.57070313 9.79898438 40.34765625 10.88671875 C42 14 42 14 41.74609375 16.89453125 C41.49988281 17.58933594 41.25367188 18.28414062 41 19 C39.80375 18.814375 38.6075 18.62875 37.375 18.4375 C34.60266722 18.07399483 32.90086317 18.02155149 30.125 18.625 C26.77941104 19.02647068 25.26539576 18.56275588 22.125 17.5 C18.74351306 16.36778315 16.44659137 15.82759926 12.9375 16.5 C7.95020479 17.13330733 4.57239076 15.8734101 0 14 C-0.33 14.66 -0.66 15.32 -1 16 C-3.64 15.67 -6.28 15.34 -9 15 C-9.66 16.32 -10.32 17.64 -11 19 C-11.99 19 -12.98 19 -14 19 C-12.05244664 16.15911431 -10.09023373 13.32867739 -8.125 10.5 C-7.56941406 9.68917969 -7.01382812 8.87835938 -6.44140625 8.04296875 C-5.90644531 7.27597656 -5.37148438 6.50898437 -4.8203125 5.71875 C-4.32805176 5.00654297 -3.83579102 4.29433594 -3.32861328 3.56054688 C-2.67094971 2.78807617 -2.67094971 2.78807617 -2 2 C-1.34 2 -0.68 2 0 2 C0 1.34 0 0.68 0 0 Z " fill="#D5483C" transform="translate(280,69)"/>
<path d="M0 0 C1.19625 0.28875 2.3925 0.5775 3.625 0.875 C7.73027902 1.7944789 11.83223752 2.43043593 16 3 C21.42262526 3.74105291 26.68146524 4.71621575 32 6 C32 6.66 32 7.32 32 8 C32.94359375 7.97679687 33.8871875 7.95359375 34.859375 7.9296875 C42.12445668 7.82756788 48.83025098 8.11248691 55.9921875 9.48828125 C61.28886321 10.389404 66.64195361 10.67160361 72 11 C72 15.71906188 70.71245796 17.27037031 68 21 C64.27046531 20.52366991 60.54144312 20.04343748 56.8125 19.5625 C55.75740234 19.42779297 54.70230469 19.29308594 53.61523438 19.15429688 C52.59365234 19.02216797 51.57207031 18.89003906 50.51953125 18.75390625 C49.58214111 18.63345947 48.64475098 18.5130127 47.67895508 18.38891602 C45.09545266 18.01385729 42.55431322 17.53679064 40 17 C40 16.34 40 15.68 40 15 C38.66001953 15.309375 38.66001953 15.309375 37.29296875 15.625 C31.55491365 16.44534113 25.95158385 15.02943414 20.3125 14 C18.0807492 13.59677916 15.84770541 13.20063317 13.61328125 12.8125 C12.63141846 12.63332031 11.64955566 12.45414063 10.63793945 12.26953125 C7.2196099 11.9202637 5.03824676 12.48087662 2 14 C0.66416101 9.15758367 -0.25328119 5.06562383 0 0 Z " fill="#E8827D" transform="translate(50,173)"/>
<path d="M0 0 C3.96 0.33 7.92 0.66 12 1 C12.30370743 3.89574514 12.5687095 6.78661669 12.8125 9.6875 C12.90208984 10.50412109 12.99167969 11.32074219 13.08398438 12.16210938 C13.55595595 18.29773985 13.55595595 18.29773985 10.7734375 21.8125 C9.85820313 22.534375 8.94296875 23.25625 8 24 C7.28457031 24.73863281 6.56914063 25.47726563 5.83203125 26.23828125 C4.83236328 27.26501953 4.83236328 27.26501953 3.8125 28.3125 C3.13832031 29.00988281 2.46414062 29.70726562 1.76953125 30.42578125 C0 32 0 32 -2 32 C-2.25136719 32.58910156 -2.50273438 33.17820313 -2.76171875 33.78515625 C-4.15455401 36.27644202 -5.6208572 37.62300414 -7.8125 39.4375 C-10.28434448 41.51905325 -12.64711528 43.59655844 -14.875 45.9375 C-17 48 -17 48 -19 48 C-16.96136383 39.72943539 -14.17712327 31.89885589 -11 24 C-10.34 24 -9.68 24 -9 24 C-8.84724609 22.51306641 -8.84724609 22.51306641 -8.69140625 20.99609375 C-8.08214795 16.73128566 -6.60783246 13.01161549 -4.9375 9.0625 C-4.65583984 8.37865234 -4.37417969 7.69480469 -4.08398438 6.99023438 C-3.3964595 5.32386054 -2.69923825 3.66149273 -2 2 C-1.34 2 -0.68 2 0 2 C0 1.34 0 0.68 0 0 Z " fill="#CA2E23" transform="translate(35,147)"/>
<path d="M0 0 C0.78310547 0.39832031 0.78310547 0.39832031 1.58203125 0.8046875 C1.6091786 3.03378621 1.62849379 5.26298117 1.64453125 7.4921875 C1.65613281 8.73355469 1.66773438 9.97492188 1.6796875 11.25390625 C1.59681798 14.26704204 1.29042574 16.88744089 0.58203125 19.8046875 C0.25203125 19.8046875 -0.07796875 19.8046875 -0.41796875 19.8046875 C-0.91296875 16.8346875 -0.91296875 16.8346875 -1.41796875 13.8046875 C-1.98644531 13.76730469 -2.55492187 13.72992188 -3.140625 13.69140625 C-8.49417224 13.23559505 -12.46198373 11.96729915 -17.41796875 9.8046875 C-20.09363226 9.29886419 -22.69968828 9.04313316 -25.41796875 8.8046875 C-25.41796875 8.1446875 -25.41796875 7.4846875 -25.41796875 6.8046875 C-26.65546875 6.8459375 -27.89296875 6.8871875 -29.16796875 6.9296875 C-32.43434837 6.94127041 -34.63266345 6.6615577 -37.41796875 4.8046875 C-37.41796875 4.1446875 -37.41796875 3.4846875 -37.41796875 2.8046875 C-34.81450078 1.65724419 -32.2102367 0.51167282 -29.60546875 -0.6328125 C-28.86748047 -0.95830078 -28.12949219 -1.28378906 -27.36914062 -1.61914062 C-26.65693359 -1.93173828 -25.94472656 -2.24433594 -25.2109375 -2.56640625 C-24.55633545 -2.85443115 -23.9017334 -3.14245605 -23.22729492 -3.43920898 C-15.37801761 -6.71936171 -7.34414285 -3.52415962 0 0 Z " fill="#EC9C96" transform="translate(243.41796875,134.1953125)"/>
<path d="M0 0 C3.71988782 0.55660943 7.44134692 1.10167381 11.16308594 1.64575195 C13.54079212 1.99858081 15.91840001 2.35207276 18.29589844 2.70629883 C19.40219604 2.86782944 20.50849365 3.02936005 21.64831543 3.19578552 C26.68436736 3.9583198 31.42940596 4.75332931 36.20214844 6.61645508 C35.54214844 7.93645508 34.88214844 9.25645508 34.20214844 10.61645508 C26.98281477 10.74537175 20.21185049 10.01834128 13.13964844 8.61645508 C6.20367976 7.3074131 -0.75863937 6.97744032 -7.79785156 6.61645508 C-7.79785156 5.95645508 -7.79785156 5.29645508 -7.79785156 4.61645508 C-8.4474585 4.54128662 -9.09706543 4.46611816 -9.76635742 4.38867188 C-12.75726833 4.03690948 -15.74622133 3.67052932 -18.73535156 3.30395508 C-20.26772461 3.12703125 -20.26772461 3.12703125 -21.83105469 2.9465332 C-28.17609444 2.1559372 -33.80271926 0.84821966 -39.79785156 -1.38354492 C-39.79785156 -2.04354492 -39.79785156 -2.70354492 -39.79785156 -3.38354492 C-30.4049122 -8.0800146 -9.97612564 -1.49588721 0 0 Z " fill="#F3BEBB" transform="translate(89.7978515625,174.383544921875)"/>
<path d="M0 0 C1.98146451 0.44829514 3.96014211 0.90892498 5.9375 1.375 C7.03964844 1.63023438 8.14179688 1.88546875 9.27734375 2.1484375 C10.17582031 2.42945313 11.07429688 2.71046875 12 3 C13.23386198 5.46772396 13.28752948 7.43676564 13.5 10.1875 C13.76274809 13.48261944 14.10890198 16.61381118 14.6875 19.875 C15.21311475 25.13114754 15.21311475 25.13114754 13 28 C9.71083491 29.04383421 6.4196024 29.57728162 3 30 C-1.78228568 24.75491248 -2.23556487 20.26318145 -2.16796875 13.30078125 C-1.83995587 8.80776759 -0.90725895 4.40668632 0 0 Z " fill="#D55551" transform="translate(293,14)"/>
<path d="M0 0 C1.19625 0.28875 2.3925 0.5775 3.625 0.875 C7.73027902 1.7944789 11.83223752 2.43043593 16 3 C21.42262526 3.74105291 26.68146524 4.71621575 32 6 C32 6.66 32 7.32 32 8 C32.94359375 7.97679687 33.8871875 7.95359375 34.859375 7.9296875 C42.12445668 7.82756788 48.83025098 8.11248691 55.9921875 9.48828125 C61.28886321 10.389404 66.64195361 10.67160361 72 11 C72 15 72 15 70 18 C68.6078125 17.7834375 68.6078125 17.7834375 67.1875 17.5625 C64.96030587 17.22775138 62.7945103 16.99052591 60.54296875 16.88671875 C54.9646126 16.60085863 50.55261663 15.58475923 45.375 13.4375 C40.63602609 11.4769316 37.18649454 10.63064059 32.10546875 10.9453125 C26.60819753 11.08809877 21.24155661 9.08832429 16.0625 7.4375 C11.07783537 5.8881066 6.19583718 5.32059421 1 5 C0.67 3.35 0.34 1.7 0 0 Z " fill="#EDA09C" transform="translate(50,173)"/>
<path d="M0 0 C1.125 3.75 1.125 3.75 0 6 C-0.41422361 15.76760327 0.13220588 25.61354529 0.5 35.375 C0.54840775 36.70832498 0.59658574 38.04165832 0.64453125 39.375 C0.76077844 42.58342236 0.8792971 45.79174272 1 49 C-5.1257395 44.26278623 -7.39634854 39.70726187 -8.38671875 31.984375 C-8.78098573 20.94489949 -6.2867824 9.20564565 0 0 Z " fill="#DE827D" transform="translate(59,105)"/>
<path d="M0 0 C7.11513755 -0.53699151 12.44995746 1.30292366 19 4 C18.86068862 7.0836642 18.71240719 10.16683417 18.5625 13.25 C18.52318359 14.12269531 18.48386719 14.99539062 18.44335938 15.89453125 C18.40146484 16.73886719 18.35957031 17.58320313 18.31640625 18.453125 C18.27974854 19.22817383 18.24309082 20.00322266 18.20532227 20.80175781 C18.00396985 22.9574976 17.58270703 24.91801475 17 27 C2.3050657 8.76786674 2.3050657 8.76786674 0 0 Z " fill="#E49290" transform="translate(274,10)"/>
<path d="M0 0 C3.48221175 0.17411059 5.65214817 0.68551124 8.75 2.1875 C8.75 2.8475 8.75 3.5075 8.75 4.1875 C9.74 3.8575 10.73 3.5275 11.75 3.1875 C13.41653965 3.88744665 15.08041343 4.59574355 16.71875 5.359375 C19.62472241 6.5441176 22.59351401 7.09103105 25.66015625 7.71484375 C28.14972855 8.2779059 30.4261085 9.13800061 32.75 10.1875 C32.75 10.8475 32.75 11.5075 32.75 12.1875 C28.87505274 13.23366693 26.67486 13.08825528 22.9375 11.6875 C19.53959653 10.56156749 17.20983444 10.01121179 13.6875 10.6875 C8.70020479 11.32080733 5.32239076 10.0609101 0.75 8.1875 C0.42 8.8475 0.09 9.5075 -0.25 10.1875 C-2.89 9.8575 -5.53 9.5275 -8.25 9.1875 C-8.91 10.5075 -9.57 11.8275 -10.25 13.1875 C-11.24 13.1875 -12.23 13.1875 -13.25 13.1875 C-11.7717985 11.20760587 -10.2924882 9.22855782 -8.8125 7.25 C-8.39162109 6.68603516 -7.97074219 6.12207031 -7.53710938 5.54101562 C-3.54262321 0.20438211 -3.54262321 0.20438211 0 0 Z " fill="#D34437" transform="translate(279.25,74.8125)"/>
<path d="M0 0 C3.32253074 0.06706604 6.64205208 0.15737117 9.96313477 0.27709961 C11.70046875 0.29933594 11.70046875 0.29933594 13.47290039 0.32202148 C15.13675781 0.3790625 15.13675781 0.3790625 16.83422852 0.43725586 C18.36261353 0.47991577 18.36261353 0.47991577 19.921875 0.5234375 C22.52563477 1.21459961 22.52563477 1.21459961 24.44384766 3.57568359 C25.52563477 6.21459961 25.52563477 6.21459961 24.52563477 9.21459961 C21.75446173 9.07379406 18.98380836 8.92716843 16.21313477 8.77709961 C15.03460938 8.718125 15.03460938 8.718125 13.83227539 8.65795898 C13.07495117 8.61606445 12.31762695 8.57416992 11.53735352 8.53100586 C10.49260864 8.47601929 10.49260864 8.47601929 9.42675781 8.41992188 C7.52563477 8.21459961 7.52563477 8.21459961 4.52563477 7.21459961 C2.63350739 6.99280176 0.73679005 6.80845946 -1.16186523 6.65209961 C-2.15573242 6.56831055 -3.14959961 6.48452148 -4.17358398 6.39819336 C-5.3124707 6.30731445 -5.3124707 6.30731445 -6.47436523 6.21459961 C-3.72498221 0.32306456 -3.72498221 0.32306456 0 0 Z " fill="#EDA09A" transform="translate(287.474365234375,63.785400390625)"/>
<path d="M0 0 C1.60294922 0.44472656 1.60294922 0.44472656 3.23828125 0.8984375 C4.04652344 1.13820312 4.85476562 1.37796875 5.6875 1.625 C5.6875 2.285 5.6875 2.945 5.6875 3.625 C6.59628906 3.69847656 6.59628906 3.69847656 7.5234375 3.7734375 C24.33614865 5.27364865 24.33614865 5.27364865 27.6875 8.625 C27.6640625 10.7890625 27.6640625 10.7890625 27.3125 13.25 C27.20164063 14.06726563 27.09078125 14.88453125 26.9765625 15.7265625 C26.83347656 16.66628906 26.83347656 16.66628906 26.6875 17.625 C26.3575 17.625 26.0275 17.625 25.6875 17.625 C25.1925 14.655 25.1925 14.655 24.6875 11.625 C23.83478516 11.56892578 23.83478516 11.56892578 22.96484375 11.51171875 C17.61129651 11.05590755 13.64348502 9.78761165 8.6875 7.625 C6.01183649 7.11917669 3.40578047 6.86344566 0.6875 6.625 C0.6875 5.965 0.6875 5.305 0.6875 4.625 C-0.55 4.66625 -1.7875 4.7075 -3.0625 4.75 C-6.32887962 4.76158291 -8.5271947 4.4818702 -11.3125 2.625 C-11.3125 1.965 -11.3125 1.305 -11.3125 0.625 C-7.01715955 -1.59040751 -4.59062105 -1.31160602 0 0 Z " fill="#E98982" transform="translate(217.3125,136.375)"/>
<path d="M0 0 C3.71988782 0.55660943 7.44134692 1.10167381 11.16308594 1.64575195 C13.54079212 1.99858081 15.91840001 2.35207276 18.29589844 2.70629883 C19.40219604 2.86782944 20.50849365 3.02936005 21.64831543 3.19578552 C26.68436736 3.9583198 31.42940596 4.75332931 36.20214844 6.61645508 C33.00317308 8.21594276 29.62096438 7.48342317 26.13964844 7.24145508 C25.39392578 7.19762695 24.64820312 7.15379883 23.87988281 7.10864258 C18.33149884 6.74580548 18.33149884 6.74580548 17.20214844 5.61645508 C13.74224042 5.16598565 10.28317244 4.7985178 6.81152344 4.4543457 C3.33031228 4.08135879 0.19566815 3.6145447 -3.17675781 2.62036133 C-7.96162113 1.29381346 -12.67376297 0.90199619 -17.61035156 0.49145508 C-18.54427734 0.40508789 -19.47820312 0.3187207 -20.44042969 0.22973633 C-26.57435462 -0.30660964 -32.64202799 -0.48908769 -38.79785156 -0.38354492 C-39.12785156 -1.37354492 -39.45785156 -2.36354492 -39.79785156 -3.38354492 C-30.4049122 -8.0800146 -9.97612564 -1.49588721 0 0 Z " fill="#F6D0CE" transform="translate(89.7978515625,174.383544921875)"/>
<path d="M0 0 C1.93784265 0.14120714 3.87526955 0.28812873 5.8125 0.4375 C7.43091797 0.55931641 7.43091797 0.55931641 9.08203125 0.68359375 C12 1 12 1 15 2 C17.85874962 2.25499253 20.69867432 2.46338992 23.5625 2.625 C24.34302734 2.6765625 25.12355469 2.728125 25.92773438 2.78125 C30.08944404 3.15842668 30.08944404 3.15842668 34 2 C37 6.625 37 6.625 37 10 C26.80036298 8.29401089 26.80036298 8.29401089 22.9375 6.875 C19.32218962 5.79809904 16.14305893 5.90836656 12.39453125 6.00390625 C10 6 10 6 6.6875 5.375 C3.49399877 4.92939518 1.93090897 5.81179366 -1 7 C-1.99 6.34 -2.98 5.68 -4 5 C-3.34 4.01 -2.68 3.02 -2 2 C-1.34 2 -0.68 2 0 2 C0 1.34 0 0.68 0 0 Z " fill="#E1665C" transform="translate(280,69)"/>
<path d="M0 0 C2.475 0.99 2.475 0.99 5 2 C4.9278125 2.70125 4.855625 3.4025 4.78125 4.125 C4.22774263 9.78307538 3.89275263 15.31588941 4 21 C4.66 20.67 5.32 20.34 6 20 C8.29013653 23.4352048 8.17842973 24.985331 8 29 C6.35 29.33 4.7 29.66 3 30 C-1.78228568 24.75491248 -2.23556487 20.26318145 -2.16796875 13.30078125 C-1.83995587 8.80776759 -0.90725895 4.40668632 0 0 Z " fill="#E18683" transform="translate(293,14)"/>
<path d="M0 0 C0.79921875 0.11988281 1.5984375 0.23976562 2.421875 0.36328125 C3.32679687 0.52376953 3.32679687 0.52376953 4.25 0.6875 C4.58 2.9975 4.91 5.3075 5.25 7.6875 C1.95303895 8.78648702 0.84505097 8.55874444 -2.4375 7.75 C-3.24574219 7.55535156 -4.05398437 7.36070312 -4.88671875 7.16015625 C-5.50160156 7.00417969 -6.11648437 6.84820312 -6.75 6.6875 C-6.75 7.3475 -6.75 8.0075 -6.75 8.6875 C-7.41 8.6875 -8.07 8.6875 -8.75 8.6875 C-8.811875 9.450625 -8.87375 10.21375 -8.9375 11 C-9.89950191 15.36600868 -11.6399323 18.9997159 -13.59375 23.00390625 C-14.70650724 25.58655567 -15.30945806 27.91909443 -15.75 30.6875 C-16.41 30.6875 -17.07 30.6875 -17.75 30.6875 C-13.77924754 7.76859545 -13.77924754 7.76859545 -6.85546875 0.7734375 C-4.25294724 -0.56886488 -2.86607654 -0.46363003 0 0 Z " fill="#E47169" transform="translate(41.75,140.3125)"/>
<path d="M0 0 C0.66 0.66 1.32 1.32 2 2 C4.32779431 2.31482679 4.32779431 2.31482679 7 2.375 C11.08220117 2.66165652 14.20968966 3.3203707 17.9375 5 C23.54830423 7.47482926 28.94041332 7.69144962 35 8 C39.6064227 8.52007998 43.64456976 9.40654991 48 11 C48 11.66 48 12.32 48 13 C47.38898438 12.89042969 46.77796875 12.78085938 46.1484375 12.66796875 C24.20700641 8.6567951 24.20700641 8.6567951 2 8 C0.23537317 4.91190305 0 3.76687864 0 0 Z " fill="#EC9490" transform="translate(50,175)"/>
<path d="M0 0 C1.27681307 0.61269139 2.55019949 1.23294098 3.8125 1.875 C3.8125 3.195 3.8125 4.515 3.8125 5.875 C1.66594499 5.56749629 -0.47973285 5.2538634 -2.625 4.9375 C-3.81996094 4.76347656 -5.01492187 4.58945313 -6.24609375 4.41015625 C-9.1875 3.875 -9.1875 3.875 -10.1875 2.875 C-12.43433187 2.34238448 -14.69415479 1.91198384 -16.9609375 1.47265625 C-19.1875 0.875 -19.1875 0.875 -22.1875 -1.125 C-15.04190836 -6.14622656 -7.38941075 -3.25180694 0 0 Z " fill="#F4C4C1" transform="translate(241.1875,133.125)"/>
<path d="M0 0 C6.0546875 -0.1953125 6.0546875 -0.1953125 8 0 C10.74804346 2.74804346 10.98365084 5.75182683 11.6875 9.4375 C11.82994141 10.11876953 11.97238281 10.80003906 12.11914062 11.50195312 C12.77081474 14.81219826 13.0845894 16.74623181 12 20 C6.50333176 13.72952895 2.57549598 7.96370468 0 0 Z " fill="#EDB6B5" transform="translate(274,10)"/>
<path d="M0 0 C5.7883523 -0.30748219 10.43780698 0.75630984 15.9375 2.5 C16.71673828 2.73847656 17.49597656 2.97695312 18.29882812 3.22265625 C20.20190376 3.80642178 22.10134922 4.40199976 24 5 C24.33 4.34 24.66 3.68 25 3 C27 6 27 6 26.625 8.6875 C26.315625 9.8321875 26.315625 9.8321875 26 11 C25.34 11 24.68 11 24 11 C24 10.34 24 9.68 24 9 C23.01 9.33 22.02 9.66 21 10 C19.32984631 9.33193853 17.6629759 8.65162441 16.03125 7.89453125 C13.11888346 6.61196983 10.11391759 5.67749033 7.08984375 4.6953125 C4.68382248 3.89480449 2.33812254 2.980503 0 2 C0 1.34 0 0.68 0 0 Z " fill="#D95246" transform="translate(293,74)"/>
<path d="M0 0 C8.13936223 0.78768022 15.97520665 2.11129656 23.84765625 4.34765625 C31.70985836 6.51398882 39.67656842 8.25474622 47.63598633 10.02319336 C49.63516088 10.46858568 51.63210508 10.92300916 53.62890625 11.37890625 C54.80525635 11.6426001 55.98160645 11.90629395 57.19360352 12.17797852 C60 13 60 13 62 15 C54.35690703 14.3827045 47.22209132 12.68141006 39.8125 10.75 C29.79940598 8.18242131 19.77733079 5.74660805 9.6652832 3.59863281 C8.82570068 3.41526367 7.98611816 3.23189453 7.12109375 3.04296875 C6.02945923 2.81130005 6.02945923 2.81130005 4.91577148 2.57495117 C3 2 3 2 0 0 Z " fill="#AD1514" transform="translate(125,295)"/>
<path d="M0 0 C2.375 0.375 2.375 0.375 4.375 2.375 C7.03037372 2.94020003 9.66644713 3.11288198 12.375 3.375 C12.375 4.035 12.375 4.695 12.375 5.375 C15.345 5.87 15.345 5.87 18.375 6.375 C15.375 8.375 15.375 8.375 13.25 8.125 C12.30125 7.8775 11.3525 7.63 10.375 7.375 C8.77176706 7.01663028 7.16752983 6.66273414 5.5625 6.3125 C4.16655082 6.00051788 2.77067835 5.68819144 1.375 5.375 C1.375 6.035 1.375 6.695 1.375 7.375 C-1.265 7.045 -3.905 6.715 -6.625 6.375 C-7.285 7.695 -7.945 9.015 -8.625 10.375 C-9.615 10.375 -10.605 10.375 -11.625 10.375 C-9.9750706 8.35841962 -8.31079956 6.36114316 -6.625 4.375 C-5.965 3.59125 -5.305 2.8075 -4.625 2 C-2.625 0.375 -2.625 0.375 0 0 Z " fill="#D14033" transform="translate(277.625,77.625)"/>
<path d="M0 0 C1.32 0.66 2.64 1.32 4 2 C4 5.3 4 8.6 4 12 C4.33 12 4.66 12 5 12 C5.66 15.3 6.32 18.6 7 22 C3.14243493 24.15305957 0.44870215 25.39253254 -4 25 C-3.0409375 24.7525 -3.0409375 24.7525 -2.0625 24.5 C0.39307493 23.05317113 0.39307493 23.05317113 0.875 19.4375 C1.20441301 15.411341 0.47803452 11.93813841 -0.515625 8.05078125 C-1.08426569 5.64322994 -1.23092949 3.46324789 -1 1 C-0.67 0.67 -0.34 0.34 0 0 Z " fill="#CC312C" transform="translate(306,18)"/>
<path d="M0 0 C0.99 0 1.98 0 3 0 C4.01894076 5.84888043 4.11798453 11.50919169 4.0625 17.4375 C4.05798828 18.35982422 4.05347656 19.28214844 4.04882812 20.23242188 C4.03713938 22.48835048 4.02075455 24.74413967 4 27 C-0.30206076 21.91574637 -1.27185832 16.92427308 -1.1875 10.375 C-1.18105469 9.26898438 -1.17460938 8.16296875 -1.16796875 7.0234375 C-1.02802388 4.50442978 -0.73166459 2.39985987 0 0 Z " fill="#E1908B" transform="translate(52,123)"/>
<path d="M0 0 C2.52197266 -0.2487793 2.52197266 -0.2487793 5.6640625 -0.07421875 C7.34628906 0.00795898 7.34628906 0.00795898 9.0625 0.09179688 C10.238125 0.16462891 11.41375 0.23746094 12.625 0.3125 C14.40003906 0.4043457 14.40003906 0.4043457 16.2109375 0.49804688 C19.14164579 0.65167271 22.0708392 0.81957381 25 1 C25.33 2.65 25.66 4.3 26 6 C16.53616378 5.54362211 7.32190498 4.81847768 -2 3 C-1.34 2.01 -0.68 1.02 0 0 Z " fill="#F3C2BE" transform="translate(285,64)"/>
<path d="M0 0 C1.19625 0.28875 2.3925 0.5775 3.625 0.875 C7.73027902 1.7944789 11.83223752 2.43043593 16 3 C21.42262526 3.74105291 26.68146524 4.71621575 32 6 C32 6.33 32 6.66 32 7 C23.5626594 7.19055474 15.52272478 7.2907956 7.234375 5.4375 C4.72522436 4.87189647 4.72522436 4.87189647 1 5 C0.67 3.35 0.34 1.7 0 0 Z " fill="#F0AFAC" transform="translate(50,173)"/>
<path d="M0 0 C7.855878 -0.20918018 15.23316206 0.01855715 22.95703125 1.48828125 C28.26712272 2.38124913 33.62992745 2.67086652 39 3 C39 4.32 39 5.64 39 7 C38.26136719 6.86722656 37.52273437 6.73445312 36.76171875 6.59765625 C30.53697158 5.51405986 24.38591972 4.68799723 18.08203125 4.24609375 C16 4 16 4 15 3 C12.47804033 2.60056824 9.97036344 2.24920152 7.4375 1.9375 C6.72658203 1.84662109 6.01566406 1.75574219 5.28320312 1.66210938 C3.52261597 1.43760497 1.76136522 1.21831603 0 1 C0 0.67 0 0.34 0 0 Z " fill="#F0ACA9" transform="translate(83,181)"/>
<path d="M0 0 C3.1171875 0.390625 3.1171875 0.390625 6.875 1.25 C8.72738281 1.65992188 8.72738281 1.65992188 10.6171875 2.078125 C13.39740501 2.83578243 15.47109893 3.70931605 18 5 C19.73813388 5.42663286 21.48988665 5.80076859 23.25 6.125 C24.14203125 6.29257813 25.0340625 6.46015625 25.953125 6.6328125 C26.96632812 6.81457031 26.96632812 6.81457031 28 7 C28 7.99 28 8.98 28 10 C26.90042969 9.73445312 25.80085938 9.46890625 24.66796875 9.1953125 C23.17464805 8.83783544 21.68114596 8.48111557 20.1875 8.125 C19.41591553 7.9408252 18.64433105 7.75665039 17.84936523 7.56689453 C12.5945507 6.32975855 7.34538449 5.2913705 2.00390625 4.4921875 C0 4 0 4 -2 2 C-1.34 1.34 -0.68 0.68 0 0 Z " fill="#EFADA7" transform="translate(217,132)"/>
<path d="M0 0 C0.99 0 1.98 0 3 0 C3.0272616 2.04159095 3.04651345 4.08328963 3.0625 6.125 C3.07410156 7.26195312 3.08570313 8.39890625 3.09765625 9.5703125 C3.005327 12.8129156 2.61389906 15.81932612 2 19 C1.01 19.33 0.02 19.66 -1 20 C-3.97113502 14.05772995 -1.6113523 6.08573237 0 0 Z " fill="#D96561" transform="translate(298,16)"/>
<path d="M0 0 C1 2 1 2 0.51855469 3.82836914 C0.23915039 4.55660889 -0.04025391 5.28484863 -0.328125 6.03515625 C-0.63363281 6.84533203 -0.93914063 7.65550781 -1.25390625 8.49023438 C-1.74697266 9.76350586 -1.74697266 9.76350586 -2.25 11.0625 C-2.88161564 12.71951634 -3.51182977 14.37706759 -4.140625 16.03515625 C-4.45064453 16.85129395 -4.76066406 17.66743164 -5.08007812 18.50830078 C-6.48266282 22.30733991 -7.75248047 26.14767363 -9 30 C-9.66 30 -10.32 30 -11 30 C-7.01838235 7.01838235 -7.01838235 7.01838235 0 0 Z " fill="#F1E4E3" transform="translate(35,141)"/>
<path d="M0 0 C1.125 3.75 1.125 3.75 0 6 C-0.41422361 15.76760327 0.13220588 25.61354529 0.5 35.375 C0.54840775 36.70832498 0.59658574 38.04165832 0.64453125 39.375 C0.76077844 42.58342236 0.8792971 45.79174272 1 49 C0.34 48.67 -0.32 48.34 -1 48 C-1.03758423 47.02728149 -1.03758423 47.02728149 -1.07592773 46.03491211 C-1.1943304 43.0023541 -1.31572583 39.96992448 -1.4375 36.9375 C-1.48044189 35.84308594 -1.52338379 34.74867188 -1.56762695 33.62109375 C-1.81542628 27.56318167 -2.17236954 21.54051788 -2.6875 15.5 C-3.07792107 10.15423451 -2.81667621 6.04632282 -1 1 C-0.67 0.67 -0.34 0.34 0 0 Z " fill="#D9716B" transform="translate(59,105)"/>
<path d="M0 0 C2.475 0.495 2.475 0.495 5 1 C4.979375 2.03125 4.95875 3.0625 4.9375 4.125 C4.89962453 7.85980133 4.89962453 7.85980133 5.5 10.9375 C6.11257827 14.68954192 6.06550764 18.20055694 6 22 C3.45304813 20.09326554 2.99842908 18.99281613 2.3046875 15.8203125 C2.16289062 14.60085937 2.02109375 13.38140625 1.875 12.125 C1.38065704 8.0401661 0.87187869 4.02287886 0 0 Z " fill="#E8A4A2" transform="translate(283,11)"/>
<path d="M0 0 C6.20988129 0.44356295 10.60540561 1.91532502 16 5 C16 5.66 16 6.32 16 7 C9.44074057 6.61020794 4.05473373 5.57886807 -2 3 C-1.34 2.67 -0.68 2.34 0 2 C0 1.34 0 0.68 0 0 Z " fill="#871203" transform="translate(259,322)"/>
<path d="M0 0 C0.66 0.66 1.32 1.32 2 2 C4.57061311 2.64767793 4.57061311 2.64767793 7 3 C6.67 3.66 6.34 4.32 6 5 C6.77085938 5.04898438 7.54171875 5.09796875 8.3359375 5.1484375 C9.33882812 5.22320312 10.34171875 5.29796875 11.375 5.375 C12.87160156 5.47941406 12.87160156 5.47941406 14.3984375 5.5859375 C17 6 17 6 19 8 C13.39 8 7.78 8 2 8 C0 4 0 4 0 0 Z " fill="#E98E8A" transform="translate(50,175)"/>
<path d="M0 0 C2.31284456 0.14026283 4.62527591 0.28735558 6.9375 0.4375 C8.86916016 0.55931641 8.86916016 0.55931641 10.83984375 0.68359375 C14 1 14 1 15 2 C17.69235776 2.23678716 20.36498156 2.42198025 23.0625 2.5625 C24.20041992 2.62727539 24.20041992 2.62727539 25.36132812 2.69335938 C27.24065438 2.79973633 29.12030244 2.90039934 31 3 C31 4.32 31 5.64 31 7 C30.34 7 29.68 7 29 7 C29 6.34 29 5.68 29 5 C27.99582031 4.96261719 26.99164063 4.92523438 25.95703125 4.88671875 C16.96433597 4.47926485 8.71689328 3.37326375 0 1 C0 0.67 0 0.34 0 0 Z " fill="#F4C4C2" transform="translate(93,178)"/>
<path d="M0 0 C1.93784265 0.14120714 3.87526955 0.28812873 5.8125 0.4375 C7.43091797 0.55931641 7.43091797 0.55931641 9.08203125 0.68359375 C12 1 12 1 15 2 C16.33363703 2.14403348 17.67218046 2.24590423 19.01171875 2.31640625 C20.14770508 2.37924805 20.14770508 2.37924805 21.30664062 2.44335938 C22.48516602 2.50233398 22.48516602 2.50233398 23.6875 2.5625 C24.88342773 2.62727539 24.88342773 2.62727539 26.10351562 2.69335938 C28.06881447 2.79927368 30.03438496 2.90012551 32 3 C32 3.33 32 3.66 32 4 C28.39585115 4.02953103 24.79173424 4.04697407 21.1875 4.0625 C20.18267578 4.07087891 19.17785156 4.07925781 18.14257812 4.08789062 C11.37131176 4.10966319 4.73089074 3.7369831 -2 3 C-1.34 2.67 -0.68 2.34 0 2 C0 1.34 0 0.68 0 0 Z " fill="#E67F77" transform="translate(280,69)"/>
<path d="M0 0 C1.98 0.66 3.96 1.32 6 2 C6 3.65 6 5.3 6 7 C2.7 7 -0.6 7 -4 7 C-3.67 5.35 -3.34 3.7 -3 2 C-2.01 2 -1.02 2 0 2 C0 1.34 0 0.68 0 0 Z " fill="#F2BBB7" transform="translate(40,134)"/>
<path d="M0 0 C2.475 0.99 2.475 0.99 5 2 C4.9278125 2.71285156 4.855625 3.42570312 4.78125 4.16015625 C4.26690274 9.46793427 3.88150921 14.66791429 4 20 C3.67 20 3.34 20 3 20 C0.71415102 13.44723293 0.39405632 6.89598561 0 0 Z " fill="#DD7370" transform="translate(293,14)"/>
<path d="M0 0 C2.64 0 5.28 0 8 0 C8 0.66 8 1.32 8 2 C7.34 2 6.68 2 6 2 C6.33 2.66 6.66 3.32 7 4 C7.06950541 5.54023996 7.08452357 7.08334988 7.0625 8.625 C7.05347656 9.44226562 7.04445313 10.25953125 7.03515625 11.1015625 C7.02355469 11.72804688 7.01195312 12.35453125 7 13 C3.30250259 8.92000285 1.7410336 5.13604912 0 0 Z " fill="#F3CFCE" transform="translate(274,10)"/>
<path d="M0 0 C7.7276932 -0.31806054 13.93924474 -0.32270836 21 3 C20.01 4.485 20.01 4.485 19 6 C12.73 4.35 6.46 2.7 0 1 C0 0.67 0 0.34 0 0 Z " fill="#A31F16" transform="translate(265,328)"/>
<path d="M0 0 C1.41750563 0.11509661 2.83401169 0.24253658 4.25 0.375 C5.03890625 0.44460937 5.8278125 0.51421875 6.640625 0.5859375 C9.085877 1.01507113 10.84836903 1.78600638 13 3 C13.33 2.34 13.66 1.68 14 1 C15.32 1.33 16.64 1.66 18 2 C17.67 4.97 17.34 7.94 17 11 C16.67 11 16.34 11 16 11 C15.67 9.02 15.34 7.04 15 5 C14.41992188 4.96261719 13.83984375 4.92523438 13.2421875 4.88671875 C8.18321136 4.46096333 4.45720842 3.62861009 0 1 C0 0.67 0 0.34 0 0 Z " fill="#E67E76" transform="translate(227,143)"/>
<path d="M0 0 C2.92669839 0.03107998 5.35426782 0.41669195 8.1875 1.125 C10.86036313 1.21305944 13.51198652 1.16959189 16.1875 1.125 C16.1875 2.445 16.1875 3.765 16.1875 5.125 C15.259375 4.980625 14.33125 4.83625 13.375 4.6875 C9.14669746 4.06492785 4.90363149 3.78374047 0.640625 3.50390625 C-1.8125 3.125 -1.8125 3.125 -4.8125 1.125 C-3.8125 0.125 -3.8125 0.125 0 0 Z " fill="#EB9490" transform="translate(103.8125,185.875)"/>
<path d="M0 0 C1.5 1.125 1.5 1.125 3 3 C3.1875 6.1875 3.1875 6.1875 3 9 C1.35 9.33 -0.3 9.66 -2 10 C-3.125 8.3125 -3.125 8.3125 -4 6 C-3.25 3.3125 -3.25 3.3125 -2 1 C-1.34 0.67 -0.68 0.34 0 0 Z " fill="#DD7773" transform="translate(298,34)"/>
<path d="M0 0 C5.33956123 1.08071013 10.03230017 2.91179959 14.875 5.375 C14.875 6.035 14.875 6.695 14.875 7.375 C9.24877049 5.58483607 9.24877049 5.58483607 7.09375 4.375 C4.14713814 3.04694958 1.3201213 2.69731698 -1.875 2.25 C-3.04546875 2.08242187 -4.2159375 1.91484375 -5.421875 1.7421875 C-6.75992188 1.56042969 -6.75992188 1.56042969 -8.125 1.375 C-4.60334544 -0.9727697 -3.99119875 -0.76185275 0 0 Z " fill="#F6D1CE" transform="translate(230.125,129.625)"/>
<path d="M0 0 C0.66 0.66 1.32 1.32 2 2 C1.67 2.99 1.34 3.98 1 5 C-1.77170395 4.88613541 -4.54178046 4.75939222 -7.3125 4.625 C-8.09818359 4.5940625 -8.88386719 4.563125 -9.69335938 4.53125 C-10.45068359 4.49257812 -11.20800781 4.45390625 -11.98828125 4.4140625 C-13.03302612 4.36693115 -13.03302612 4.36693115 -14.09887695 4.31884766 C-16 4 -16 4 -19 2 C-12.73 2 -6.46 2 0 2 C0 1.34 0 0.68 0 0 Z " fill="#E99089" transform="translate(311,68)"/>
<path d="M0 0 C0.680625 0.33 1.36125 0.66 2.0625 1 C5.0061948 2.19754525 5.0061948 2.19754525 8.3125 1.875 C12.99308356 2.03366385 16.0159542 3.68200971 20 6 C20 6.33 20 6.66 20 7 C12.125 6.125 12.125 6.125 11 5 C8.75316813 4.46738448 6.49334521 4.03698384 4.2265625 3.59765625 C2 3 2 3 -1 1 C-0.67 0.67 -0.34 0.34 0 0 Z " fill="#F2BBB6" transform="translate(220,131)"/>
<path d="M0 0 C0.81549316 0.47542236 0.81549316 0.47542236 1.64746094 0.96044922 C4.3996856 2.17661491 6.64280525 2.4095706 9.640625 2.6328125 C10.71054688 2.71660156 11.78046875 2.80039063 12.8828125 2.88671875 C14.54957031 3.00466797 14.54957031 3.00466797 16.25 3.125 C17.37664062 3.21136719 18.50328125 3.29773438 19.6640625 3.38671875 C22.44223487 3.59861325 25.22075574 3.80275103 28 4 C28 4.33 28 4.66 28 5 C24.85424793 5.05896868 21.7086414 5.09391603 18.5625 5.125 C17.24475586 5.15013672 17.24475586 5.15013672 15.90039062 5.17578125 C9.95240262 5.21967784 4.7618244 4.48881322 -1 3 C-0.67 2.01 -0.34 1.02 0 0 Z " fill="#D0615C" transform="translate(76,160)"/>
<path d="M0 0 C1.00289062 0.10183594 2.00578125 0.20367187 3.0390625 0.30859375 C3.80992188 0.39238281 4.58078125 0.47617188 5.375 0.5625 C5.375 1.5525 5.375 2.5425 5.375 3.5625 C2.07803895 4.66148702 0.97005097 4.43374444 -2.3125 3.625 C-3.52486328 3.33302734 -3.52486328 3.33302734 -4.76171875 3.03515625 C-5.68404297 2.80119141 -5.68404297 2.80119141 -6.625 2.5625 C-6.955 3.2225 -7.285 3.8825 -7.625 4.5625 C-7.625 3.2425 -7.625 1.9225 -7.625 0.5625 C-4.89657939 -0.80171031 -3.01546682 -0.31557211 0 0 Z " fill="#E15F57" transform="translate(41.625,144.4375)"/>
<path d="M0 0 C2.39611639 0.31044024 4.79187835 0.62328358 7.1875 0.9375 C8.19780273 1.06801758 8.19780273 1.06801758 9.22851562 1.20117188 C12.85081166 1.67825477 16.42803585 2.23012035 20 3 C20.33 3.99 20.66 4.98 21 6 C17.87415123 5.52626501 14.74949284 5.04509049 11.625 4.5625 C10.73554687 4.42779297 9.84609375 4.29308594 8.9296875 4.15429688 C8.07890625 4.02216797 7.228125 3.89003906 6.3515625 3.75390625 C5.56604004 3.63345947 4.78051758 3.5130127 3.97119141 3.38891602 C2 3 2 3 0 2 C0 1.34 0 0.68 0 0 Z " fill="#E98883" transform="translate(98,187)"/>
<path d="M0 0 C0.98742187 0.08378906 1.97484375 0.16757813 2.9921875 0.25390625 C4.27351563 0.35574219 5.55484375 0.45757812 6.875 0.5625 C8.15117187 0.66691406 9.42734375 0.77132812 10.7421875 0.87890625 C13.88643942 1.25683367 13.88643942 1.25683367 16 0 C16.33 1.65 16.66 3.3 17 5 C5.47835991 3.07289294 5.47835991 3.07289294 0 1 C0 0.67 0 0.34 0 0 Z " fill="#DE5F54" transform="translate(300,74)"/>
<path d="M0 0 C-3.98500459 3.98500459 -11.07895515 4.78247538 -16.5703125 5.19140625 C-18.38132965 5.1881607 -20.19198635 5.10430848 -22 5 C-18.78660465 2.85773643 -16.43016168 2.22972551 -12.6875 1.375 C-11.02267578 0.98441406 -11.02267578 0.98441406 -9.32421875 0.5859375 C-6.13489257 0.0237766 -3.22976591 -0.10749599 0 0 Z " fill="#DE948C" transform="translate(214,12)"/>
<path d="M0 0 C2 1.75 2 1.75 4 4 C4 5.32 4 6.64 4 8 C1.69 7.67 -0.62 7.34 -3 7 C-3.33 5.35 -3.66 3.7 -4 2 C-2.68 2.33 -1.36 2.66 0 3 C0 2.01 0 1.02 0 0 Z " fill="#D43A39" transform="translate(288,327)"/>
<path d="M0 0 C0.66 0.66 1.32 1.32 2 2 C1.67 2.99 1.34 3.98 1 5 C-5.27 4.34 -11.54 3.68 -18 3 C-18 2.67 -18 2.34 -18 2 C-12.06 2 -6.12 2 0 2 C0 1.34 0 0.68 0 0 Z " fill="#E37066" transform="translate(313,71)"/>
<path d="M0 0 C1.051875 0.12375 2.10375 0.2475 3.1875 0.375 C3.5175 1.365 3.8475 2.355 4.1875 3.375 C1.5475 3.045 -1.0925 2.715 -3.8125 2.375 C-4.4725 3.695 -5.1325 5.015 -5.8125 6.375 C-6.8025 6.375 -7.7925 6.375 -8.8125 6.375 C-4.75096154 0.46730769 -4.75096154 0.46730769 0 0 Z " fill="#CA3224" transform="translate(274.8125,81.625)"/>
<path d="M0 0 C2 1 2 1 3 2 C5.32817964 2.36760731 7.6618385 2.70241581 10 3 C10 3.66 10 4.32 10 5 C10.99 5 11.98 5 13 5 C12.67 5.66 12.34 6.32 12 7 C6.06 5.515 6.06 5.515 0 4 C0 2.68 0 1.36 0 0 Z " fill="#9F070A" transform="translate(60,277)"/>
<path d="M0 0 C1.9587043 0.14076315 3.91696093 0.2877676 5.875 0.4375 C7.51082031 0.55931641 7.51082031 0.55931641 9.1796875 0.68359375 C12 1 12 1 14 2 C13.67 2.66 13.34 3.32 13 4 C12.38511719 3.90460938 11.77023438 3.80921875 11.13671875 3.7109375 C10.32847656 3.60007813 9.52023438 3.48921875 8.6875 3.375 C7.88699219 3.25898438 7.08648437 3.14296875 6.26171875 3.0234375 C3.71276785 2.78466593 3.71276785 2.78466593 1 5 C0.67 3.35 0.34 1.7 0 0 Z " fill="#E77C76" transform="translate(51,182)"/>
<path d="M0 0 C0.80566406 0.07863281 1.61132812 0.15726563 2.44140625 0.23828125 C3.42947266 0.46064453 3.42947266 0.46064453 4.4375 0.6875 C4.7675 1.3475 5.0975 2.0075 5.4375 2.6875 C1.8075 2.6875 -1.8225 2.6875 -5.5625 2.6875 C-5.8925 2.0275 -6.2225 1.3675 -6.5625 0.6875 C-4.07849398 -0.55450301 -2.74042364 -0.29471651 0 0 Z " fill="#ED9D99" transform="translate(61.5625,178.3125)"/>
<path d="M0 0 C2 3 2 3 1.5390625 5.48046875 C1.23742187 6.37378906 0.93578125 7.26710938 0.625 8.1875 C0.32851563 9.08855469 0.03203125 9.98960937 -0.2734375 10.91796875 C-0.63308594 11.94857422 -0.63308594 11.94857422 -1 13 C-1.33 13 -1.66 13 -2 13 C-2.05447047 11.58376784 -2.09300508 10.16691809 -2.125 8.75 C-2.14820313 7.96109375 -2.17140625 7.1721875 -2.1953125 6.359375 C-1.9828378 3.79268059 -1.28654105 2.2083933 0 0 Z " fill="#E53F43" transform="translate(296,320)"/>
<path d="M0 0 C1 2 1 2 0.22265625 4.8203125 C-0.16019531 5.91085938 -0.54304688 7.00140625 -0.9375 8.125 C-1.31777344 9.22070312 -1.69804688 10.31640625 -2.08984375 11.4453125 C-2.39019531 12.28835937 -2.69054688 13.13140625 -3 14 C-3.33 14 -3.66 14 -4 14 C-4.31549088 8.7418187 -3.70016294 5.53627373 -1 1 C-0.67 0.67 -0.34 0.34 0 0 Z " fill="#F0D6D4" transform="translate(35,141)"/>
<path d="M0 0 C0.66 0.33 1.32 0.66 2 1 C1.6875 2.875 1.6875 2.875 1 5 C-2 7 -2 7 -4.1875 6.625 C-4.785625 6.41875 -5.38375 6.2125 -6 6 C-4.71034824 4.62437146 -3.37310707 3.29233607 -2 2 C-1.34 2 -0.68 2 0 2 C0 1.34 0 0.68 0 0 Z " fill="#A91412" transform="translate(47,166)"/>
<path d="M0 0 C0.33 0.66 0.66 1.32 1 2 C4.02934491 2.65772428 4.02934491 2.65772428 7 3 C4 5 4 5 1.4375 4.75 C-1 4 -1 4 -3 2 C-2.01 1.34 -1.02 0.68 0 0 Z " fill="#CC3527" transform="translate(289,81)"/>
<path d="M0 0 C0.99 0.495 0.99 0.495 2 1 C2.75 4.375 2.75 4.375 3 8 C2.34 8.99 1.68 9.98 1 11 C0 10 0 10 -0.09765625 7.71484375 C-0.08605469 6.79832031 -0.07445312 5.88179687 -0.0625 4.9375 C-0.05347656 4.01839844 -0.04445313 3.09929688 -0.03515625 2.15234375 C-0.02355469 1.44207031 -0.01195312 0.73179688 0 0 Z " fill="#D1433F" transform="translate(305,29)"/>
<path d="M0 0 C4.95 0.99 4.95 0.99 10 2 C10 2.66 10 3.32 10 4 C6.7 4 3.4 4 0 4 C0 2.68 0 1.36 0 0 Z " fill="#ED9E99" transform="translate(36,137)"/>
<path d="M0 0 C0.66 0.66 1.32 1.32 2 2 C1.67 2.99 1.34 3.98 1 5 C-3.95 4.67 -8.9 4.34 -14 4 C-14 3.67 -14 3.34 -14 3 C-9.38 2.67 -4.76 2.34 0 2 C0 1.34 0 0.68 0 0 Z " fill="#EEAFAA" transform="translate(309,65)"/>
<path d="M0 0 C3 3.75 3 3.75 3 6 C-0.13498292 7.85776765 -2.37471432 8.20140476 -6 8 C-5.38125 7.79375 -4.7625 7.5875 -4.125 7.375 C-1.15346355 5.45224112 -0.86975341 3.33405473 0 0 Z " fill="#C9362F" transform="translate(308,35)"/>
<path d="M0 0 C0.99 0.33 1.98 0.66 3 1 C2.88590407 2.45922693 2.75834456 3.91740598 2.625 5.375 C2.55539062 6.18710937 2.48578125 6.99921875 2.4140625 7.8359375 C2 10 2 10 0 12 C0 8.04 0 4.08 0 0 Z " fill="#D14540" transform="translate(303,17)"/>
<path d="M0 0 C2.97 0.33 5.94 0.66 9 1 C9.33 1.99 9.66 2.98 10 4 C6.37 3.34 2.74 2.68 -1 2 C-0.67 1.34 -0.34 0.68 0 0 Z " fill="#E8857E" transform="translate(37,140)"/>
<path d="M0 0 C0.66 0.33 1.32 0.66 2 1 C2 4.3 2 7.6 2 11 C1.01 10.34 0.02 9.68 -1 9 C-1.4375 2.875 -1.4375 2.875 0 0 Z " fill="#D76660" transform="translate(54,118)"/>
<path d="M0 0 C3.96 0 7.92 0 12 0 C12 0.66 12 1.32 12 2 C8.70303895 3.09898702 7.59505097 2.87124444 4.3125 2.0625 C3.50425781 1.86785156 2.69601563 1.67320312 1.86328125 1.47265625 C0.94095703 1.23869141 0.94095703 1.23869141 0 1 C0 0.67 0 0.34 0 0 Z " fill="#DE4D44" transform="translate(35,146)"/>
</svg>
