{
	"asset":{
		"generator":"Khronos glTF Blender I/O v4.4.56",
		"version":"2.0"
	},
	"extensionsUsed":[
		"KHR_materials_clearcoat"
	],
	"scene":0,
	"scenes":[
		{
			"name":"Scene",
			"nodes":[
				0
			]
		}
	],
	"nodes":[
		{
			"mesh":0,
			"name":"Mesh_0"
		}
	],
	"materials":[
		{
			"doubleSided":true,
			"extensions":{
				"KHR_materials_clearcoat":{
					"clearcoatRoughnessFactor":0
				}
			},
			"name":"Material_0",
			"pbrMetallicRoughness":{
				"baseColorTexture":{
					"index":0
				},
				"metallicFactor":0,
				"roughnessFactor":0.800000011920929
			}
		}
	],
	"meshes":[
		{
			"name":"Mesh_0",
			"primitives":[
				{
					"attributes":{
						"POSITION":0,
						"NORMAL":1,
						"TEXCOORD_0":2
					},
					"indices":3,
					"material":0
				}
			]
		}
	],
	"textures":[
		{
			"sampler":0,
			"source":0
		}
	],
	"images":[
		{
			"mimeType":"image/jpeg",
			"name":"Image_0",
			"uri":"Image_0.jpg"
		}
	],
	"accessors":[
		{
			"bufferView":0,
			"componentType":5126,
			"count":67569,
			"max":[
				0.324290007352829,
				0.9975690245628357,
				0.20045800507068634
			],
			"min":[
				-0.32263100147247314,
				-0.9980379939079285,
				-0.19147300720214844
			],
			"type":"VEC3"
		},
		{
			"bufferView":1,
			"componentType":5126,
			"count":67569,
			"type":"VEC3"
		},
		{
			"bufferView":2,
			"componentType":5126,
			"count":67569,
			"type":"VEC2"
		},
		{
			"bufferView":3,
			"componentType":5125,
			"count":351873,
			"type":"SCALAR"
		}
	],
	"bufferViews":[
		{
			"buffer":0,
			"byteLength":810828,
			"byteOffset":0,
			"target":34962
		},
		{
			"buffer":0,
			"byteLength":810828,
			"byteOffset":810828,
			"target":34962
		},
		{
			"buffer":0,
			"byteLength":540552,
			"byteOffset":1621656,
			"target":34962
		},
		{
			"buffer":0,
			"byteLength":1407492,
			"byteOffset":2162208,
			"target":34963
		}
	],
	"samplers":[
		{
			"magFilter":9729,
			"minFilter":9987
		}
	],
	"buffers":[
		{
			"byteLength":3569700,
			"uri":"Nischay3.bin"
		}
	]
}
